<svg width="61" height="62" viewBox="0 0 61 62" fill="none" xmlns="http://www.w3.org/2000/svg">
<path d="M26.3829 1.33209C27.1605 1.91358 27.1605 1.91358 27.3519 2.30998C27.6912 2.63682 27.9399 2.59272 28.3977 2.58555C28.5069 2.58151 28.6161 2.57747 28.7286 2.5733C28.9639 2.56909 29.1991 2.56493 29.4344 2.56083C29.5577 2.55781 29.6811 2.5548 29.8082 2.5517C33.6732 2.46389 39.8662 2.56884 42.9803 5.30548C43.1539 5.71053 43.0795 5.99853 42.9728 6.41803C42.7845 6.71523 42.6476 6.76837 42.3153 6.88112C41.6628 6.91324 41.1551 6.65625 40.5585 6.41046C38.4798 5.59352 36.344 5.03956 34.1329 4.72272C33.9792 4.69993 33.8254 4.67714 33.667 4.65365C32.7356 4.55396 31.7914 4.58907 30.8558 4.59405C30.6566 4.59466 30.4574 4.59521 30.2582 4.59571C29.7737 4.59703 29.2893 4.59912 28.8048 4.60162C28.8304 4.693 28.856 4.78437 28.8824 4.87852C29.0942 5.67084 29.2318 6.40021 29.2211 7.22027C29.2201 7.32326 29.219 7.42624 29.218 7.53235C29.1705 9.3566 28.6409 10.9716 27.836 12.5938C27.7699 12.7295 27.7037 12.8651 27.6355 13.0049C26.6812 14.8662 25.1288 17.4644 23.1134 18.2852C22.1675 18.5184 21.2012 18.5067 20.3282 18.043C19.2132 17.2003 18.3235 16.1234 17.5582 14.9627C17.4962 14.8687 17.4341 14.7747 17.3702 14.6778C16.469 13.2912 15.7217 11.8987 15.239 10.3138C15.135 9.97476 15.016 9.65114 14.879 9.32428C13.8485 10.0355 12.8897 10.7691 11.9728 11.6251C11.8068 11.7695 11.6403 11.9133 11.4733 12.0565C11.133 12.3545 10.8002 12.6586 10.4742 12.9722C10.3959 13.0475 10.3175 13.1227 10.2368 13.2002C9.99613 13.4883 9.87986 13.6794 9.79308 14.0469C9.85549 14.3835 9.92716 14.672 10.0353 14.993C10.0635 15.0793 10.0918 15.1656 10.1209 15.2545C10.6676 16.8352 11.8401 17.639 13.2443 18.4442C13.4818 18.582 13.7192 18.72 13.9566 18.858C14.0723 18.9251 14.188 18.9921 14.3073 19.0611C14.6006 19.2328 14.8913 19.4076 15.1808 19.5856C15.2613 19.6349 15.3417 19.6843 15.4246 19.7351C15.635 19.8647 15.845 19.995 16.0549 20.1253C17.0026 20.6452 17.9537 20.8235 19.0125 20.9945C20.3114 21.2212 21.4011 21.6925 22.2099 22.7723C22.8013 23.6888 22.9821 24.4578 22.8712 25.5508C22.6549 26.3738 22.1182 26.8095 21.4181 27.2462C21.1765 27.3596 20.9325 27.468 20.6868 27.5721C19.1277 28.1749 19.1277 28.1749 18.0615 29.3733C17.8884 29.9005 17.8042 30.4385 17.7274 30.9869C17.6058 31.7111 17.385 32.4128 17.1874 33.1192C17.1114 33.395 17.037 33.6712 16.9646 33.9479C16.9331 34.0656 16.9015 34.1832 16.8691 34.3044C16.8131 34.6541 16.8463 34.8985 16.9376 35.2383C17.2153 35.3424 17.2153 35.3424 17.5431 35.3594C17.9372 35.0302 18.1682 34.659 18.421 34.2166C18.8478 33.5292 19.304 33.0983 20.087 32.8652C20.8468 32.7117 21.4104 32.8189 22.1115 33.1121C23.0059 33.7252 23.4818 34.7401 23.9989 35.6622C24.2274 36.0658 24.4564 36.4688 24.691 36.869C24.861 37.1638 25.006 37.4615 25.1438 37.7726C25.5531 38.6416 25.9395 39.1587 26.8533 39.5161C27.3953 39.6997 27.9423 39.8567 28.4945 40.0064C31.52 40.863 31.52 40.863 32.369 42.1647C32.8767 43.1156 32.9777 44.2013 32.6647 45.2361C32.5101 45.6529 32.2987 46.0054 32.0592 46.379C31.7127 46.9377 31.5213 47.4102 31.59 48.0743C31.8748 48.8204 32.4207 49.2748 32.9858 49.8249C34.0678 50.9377 34.4381 52.0651 34.4259 53.5984C34.386 54.7616 34.047 55.6216 33.2588 56.4832C33.0431 56.6719 33.0431 56.6719 32.7895 56.7888C32.4939 56.9493 32.4341 57.0873 32.3165 57.3985C32.0919 58.1973 32.2573 58.791 32.5696 59.5437C32.6798 59.8204 32.6798 59.8204 32.6798 60.0626C33.0787 59.9986 33.4771 59.9318 33.8753 59.8639C34.0575 59.8331 34.2398 59.8029 34.4222 59.7731C40.337 58.8013 45.6088 56.2632 49.9443 52.1146C50.0988 51.9669 50.2548 51.8208 50.411 51.6749C51.1423 50.9735 51.7581 50.1955 52.3682 49.3894C52.5364 49.1677 52.7068 48.9479 52.8774 48.728C53.736 47.6051 54.4227 46.4168 55.0821 45.168C54.5672 44.6221 53.9963 44.1716 53.402 43.7149C53.3078 43.6418 53.2137 43.5688 53.1167 43.4935C52.5693 43.0703 52.0151 42.6601 51.4493 42.2618C51.392 42.3806 51.3348 42.4994 51.2757 42.6217C50.406 44.4055 49.4433 46.0558 48.1798 47.5899C48.0797 47.7129 47.9797 47.8359 47.8766 47.9626C47.1327 48.8335 46.4828 49.4341 45.3204 49.5837C44.1806 49.6307 43.3919 49.4414 42.4969 48.7384C39.7812 46.2368 37.8168 42.4297 37.6446 38.7501C37.5752 38.7693 37.5057 38.7885 37.4341 38.8082C36.3936 39.0473 35.5876 38.763 34.7003 38.213C34.4183 38.0218 34.1427 37.824 33.868 37.6224C33.7286 37.5237 33.7286 37.5237 33.5863 37.423C32.8033 36.8547 32.0263 36.2287 31.8321 35.2383C31.6761 34.0094 32.166 33.1533 32.8908 32.1888C33.0566 31.9759 33.2234 31.7638 33.3912 31.5525C34.7059 29.954 34.7059 29.954 35.4877 28.0711C35.5247 27.9175 35.5616 27.7639 35.5998 27.6056C35.6359 27.4455 35.6717 27.2853 35.7071 27.1251C36.1547 25.1174 36.7478 23.3745 38.5377 22.1829C39.5426 21.5814 40.5257 21.1842 41.7046 21.1702C41.8305 21.1673 41.9564 21.1644 42.0861 21.1614C42.3487 21.1562 42.6114 21.1524 42.8741 21.1501C43.6061 21.1306 44.1046 21.1041 44.6681 20.586C44.8706 20.3384 44.8706 20.3384 45.0162 20.0562C45.1064 19.8979 45.1064 19.8979 45.1983 19.7364C45.3397 19.4762 45.4792 19.215 45.6174 18.9531C46.2694 17.7366 46.8891 16.8554 48.2555 16.4234C48.5995 16.3301 48.9414 16.2438 49.2909 16.1741C50.0603 16.0086 50.3719 15.4746 50.7899 14.8601C51.1368 14.3502 51.1368 14.3502 51.1499 13.7622C50.8913 13.3138 50.5551 12.9831 50.1854 12.6241C50.071 12.5116 50.071 12.5116 49.9544 12.3969C49.314 11.7745 48.6441 11.2026 47.9376 10.6563C47.8105 10.5559 47.6834 10.4555 47.5564 10.355C46.7962 9.7579 46.0221 9.20398 45.2083 8.68144C44.9514 8.50492 44.7405 8.35653 44.547 8.11334C44.4997 7.67983 44.4965 7.37859 44.6756 6.97809C45.0238 6.6861 45.3092 6.68406 45.7579 6.66022C46.1169 6.80922 46.1169 6.80922 46.4769 7.0462C46.5433 7.08956 46.6096 7.13291 46.678 7.17758C49.3267 8.93922 51.797 11.0432 53.7501 13.5626C53.8439 13.6785 53.9377 13.7945 54.0344 13.914C57.2832 17.9969 59.3016 22.9432 60.047 28.0938C60.0612 28.1904 60.0754 28.2869 60.09 28.3864C61.1735 36.134 58.9418 44.0992 54.315 50.3509C53.8314 50.9897 53.3173 51.5963 52.7814 52.1915C52.7237 52.2565 52.666 52.3215 52.6065 52.3884C47.7124 57.8921 40.5989 61.2976 33.2853 62.0001C32.8947 62.0198 32.5046 62.0255 32.1136 62.0289C32.0028 62.0301 31.8921 62.0313 31.778 62.0325C29.3331 62.0533 26.9668 62.0351 24.5665 61.5157C24.3818 61.4768 24.3818 61.4768 24.1933 61.437C19.9161 60.513 15.7628 58.6889 12.336 55.9454C12.2372 55.8708 12.1384 55.7961 12.0366 55.7193C11.6077 55.3788 11.3977 55.1859 11.2159 54.6587C11.2462 54.2501 11.2462 54.2501 11.4203 53.8943C11.774 53.6097 11.9913 53.5834 12.4393 53.5963C12.9164 53.6849 13.2297 53.9814 13.5924 54.2879C14.6142 55.1004 15.6859 55.7794 16.8165 56.4297C16.8996 56.478 16.9828 56.5262 17.0684 56.5759C20.8663 58.7553 25.195 59.8457 29.55 60.0148C29.6536 60.0193 29.7572 60.0238 29.8639 60.0285C29.9572 60.0322 30.0504 60.0358 30.1465 60.0396C30.379 60.0626 30.379 60.0626 30.6212 60.1837C30.5638 60.0563 30.5063 59.9289 30.4471 59.7977C29.9748 58.6793 30.0261 57.6066 30.4765 56.487C30.8017 55.8142 31.2994 55.3761 31.8865 54.927C32.327 54.4754 32.3522 53.9552 32.3544 53.3494C32.3564 53.2172 32.3584 53.085 32.3605 52.9488C32.2724 52.1592 31.8454 51.6694 31.3099 51.1168C31.1903 50.9891 31.0709 50.8613 30.9518 50.7331C30.8662 50.641 30.8662 50.641 30.7789 50.5471C29.891 49.5786 29.4478 48.6536 29.4888 47.3193C29.5862 46.553 29.9115 45.9136 30.3412 45.2816C30.669 44.7791 30.779 44.3142 30.7423 43.7149C30.5351 43.069 30.2248 42.8424 29.6525 42.504C29.3079 42.3605 28.9561 42.2465 28.6005 42.1336C28.3964 42.0662 28.1924 41.9988 27.9884 41.9314C27.6697 41.8275 27.3508 41.7242 27.0318 41.6214C26.7217 41.5211 26.4123 41.4187 26.1029 41.3162C26.0083 41.2864 25.9136 41.2566 25.8162 41.2259C24.867 40.9096 24.3451 40.444 23.8414 39.5608C23.7996 39.4885 23.7579 39.4163 23.7149 39.3418C23.6266 39.1886 23.539 39.035 23.4519 38.8811C23.3165 38.642 23.1792 38.4041 23.0413 38.1665C22.6603 37.5086 22.2837 36.8486 21.919 36.1815C21.8712 36.0963 21.8234 36.0111 21.7742 35.9232C21.6553 35.7107 21.5399 35.4964 21.4247 35.2819C21.1865 34.9518 21.1865 34.9518 20.7227 34.8921C20.5926 34.8865 20.4624 34.8808 20.3282 34.8751C20.2961 34.9625 20.2639 35.0499 20.2308 35.1399C19.827 36.09 19.2256 36.8731 18.2696 37.2969C17.4502 37.5382 16.7765 37.4207 16.0053 37.086C15.3583 36.7322 15.074 36.1785 14.8161 35.5075C14.6356 34.6724 14.8466 33.9148 15.0545 33.1055C15.0853 32.9832 15.1161 32.861 15.1479 32.735C15.2133 32.4771 15.2791 32.2193 15.3455 31.9616C15.4459 31.5707 15.5437 31.1791 15.6413 30.7874C15.7054 30.5358 15.7696 30.2843 15.834 30.0327C15.877 29.8594 15.877 29.8594 15.9209 29.6825C16.1835 28.6781 16.49 27.5728 17.422 27.004C17.6752 26.8666 17.9323 26.736 18.1921 26.6114C18.3386 26.5391 18.4851 26.4667 18.6315 26.3942C18.86 26.282 19.0888 26.1706 19.3187 26.0612C19.5423 25.9543 19.7641 25.8442 19.9858 25.7334C20.1183 25.6693 20.2507 25.6052 20.3872 25.5391C20.7237 25.3309 20.7237 25.3309 20.8047 24.9425C20.8176 24.3568 20.5942 24.0092 20.1996 23.5906C19.5388 23.1829 18.8247 23.0401 18.0667 22.9033C17.9635 22.8843 17.8602 22.8652 17.7538 22.8456C17.5491 22.8086 17.3441 22.7736 17.1386 22.7411C15.7483 22.4921 14.5654 21.7049 13.3805 20.972C13.1997 20.8609 13.1997 20.8609 13.0153 20.7475C12.6673 20.5331 12.3199 20.3176 11.9728 20.1016C11.835 20.0163 11.835 20.0163 11.6945 19.9293C9.90861 18.8198 8.93647 17.8191 8.09777 15.8633C3.70636 22.1001 1.90556 29.5009 3.13292 37.0547C4.07292 42.437 6.54827 47.0672 10.1242 51.1428C10.4456 51.5202 10.5104 51.6235 10.5651 52.1158C10.5196 52.5547 10.5196 52.5547 10.2623 52.8499C9.84079 53.079 9.65981 53.1336 9.18761 53.0391C8.38154 52.5594 7.81813 51.7046 7.25011 50.9805C7.1552 50.8633 7.06029 50.7461 6.96251 50.6253C2.09753 44.5051 0.0217245 36.5701 0.854845 28.8355C1.58379 22.7719 4.07092 17.1754 8.09777 12.5938C8.23825 12.433 8.23825 12.433 8.38158 12.2688C9.41576 11.1017 10.5031 10.0447 11.7306 9.08209C11.7929 9.03274 11.8552 8.9834 11.9194 8.93256C12.1157 8.77729 12.3128 8.62306 12.5101 8.46905C12.5754 8.41748 12.6407 8.36591 12.7079 8.31278C13.0361 8.05841 13.3484 7.84738 13.7149 7.64741C14.4956 7.22171 14.4956 7.22171 14.9079 6.46249C14.9893 6.04501 15.0357 5.62355 15.0856 5.20136C15.3244 3.61519 16.5715 2.10699 17.8207 1.17647C20.5326 -0.541443 23.7378 -0.453262 26.3829 1.33209ZM18.1485 3.51178C17.0928 4.84969 16.5604 6.38087 16.7446 8.08354C17.2081 11.1439 18.9381 14.1066 21.1759 16.2266C21.5896 16.4908 21.8853 16.4787 22.375 16.43C23.0392 16.2148 23.4517 15.6327 23.8627 15.0989C23.92 15.0249 23.9773 14.9508 24.0364 14.8745C26.0027 12.3027 27.4071 9.62397 27.2306 6.29693C27.0083 4.89195 26.1506 3.65967 25.0509 2.78522C22.7943 1.43411 20.0416 1.5554 18.1485 3.51178ZM52.6603 15.5001C52.6177 15.5776 52.575 15.6552 52.5311 15.7352C51.8896 16.8591 51.2519 17.6341 49.9962 18.043C49.6296 18.1314 49.2639 18.2138 48.8936 18.2847C47.8878 18.6336 47.549 19.4304 47.0975 20.3287C46.5446 21.4287 46.0702 22.3313 44.8876 22.8149C44.0504 23.0836 43.2332 23.0704 42.3626 23.067C41.0063 23.0863 39.8203 23.4756 38.8556 24.461C38.1427 25.4032 37.8385 26.404 37.5995 27.5417C37.1628 29.6053 36.2804 31.0373 35.0052 32.6835C34.9272 32.7858 34.8492 32.888 34.7689 32.9933C34.6146 33.1953 34.4585 33.3959 34.3004 33.5949C33.8844 34.134 33.8844 34.134 33.7365 34.7838C33.9408 35.2256 34.236 35.4581 34.6249 35.7303C34.7327 35.8081 34.7327 35.8081 34.8426 35.8874C34.9852 35.9897 35.1285 36.091 35.2724 36.1913C35.4319 36.3047 35.5858 36.426 35.7379 36.5491C36.206 36.9058 36.5405 36.9761 37.13 36.9185C37.4958 36.8284 37.6991 36.7769 37.9327 36.4772C38.0564 36.1898 38.1516 35.8985 38.2501 35.6016C39.1549 33.6979 40.4317 32.3384 42.4203 31.6055C44.4177 30.9389 46.3494 31.1511 48.2176 32.0672C50.0062 32.9864 51.0391 34.4052 51.6877 36.3093C51.8979 37.0642 51.9334 37.7259 51.8898 38.5013C51.8149 39.5126 51.8149 39.5126 52.1565 40.4321C52.4394 40.6619 52.7241 40.8527 53.0402 41.0335C53.5005 41.316 53.9155 41.6646 54.3404 41.9969C54.514 42.1291 54.6878 42.2611 54.8617 42.3928C55.1378 42.6019 55.4064 42.8141 55.6734 43.0352C55.9082 43.255 55.9082 43.255 56.172 43.2305C58.8922 36.0275 59.2261 28.3674 56.0812 21.199C54.7111 18.1282 54.7111 18.1282 52.6603 15.5001ZM40.7756 34.9555C39.7331 36.2679 39.4479 37.7213 39.5821 39.3555C40.0795 42.4635 41.8762 45.2636 44.0626 47.4688C44.3326 47.6038 44.5115 47.6258 44.8119 47.6429C44.901 47.6502 44.9901 47.6576 45.082 47.6651C45.928 47.4616 46.5087 46.58 47.0067 45.9173C47.0743 45.8275 47.1419 45.7377 47.2116 45.6452C48.655 43.6941 49.9187 41.4601 50.1173 38.9922C50.1257 38.8913 50.1342 38.7903 50.1428 38.6862C50.198 37.3442 49.7822 36.2098 49.0275 35.1172C48.9575 35.0098 48.8876 34.9025 48.8155 34.7918C47.7811 33.7287 46.3973 33.0639 44.9103 33.0208C43.2629 33.0408 41.8959 33.7882 40.7756 34.9555Z" fill="white"/>
</svg>
