<svg width="70" height="70" viewBox="0 0 70 70" fill="none" xmlns="http://www.w3.org/2000/svg">
<path d="M47.2362 29.2033C50.6334 32.3694 52.4737 36.8546 52.6538 41.452C52.7172 44.935 51.8914 48.5177 49.8932 51.4137C49.7297 51.7546 49.789 51.8724 49.9023 52.2266C50.0867 52.585 50.2764 52.9356 50.4748 53.2861C50.5648 53.4466 50.5648 53.4466 50.6565 53.6102C51.162 54.5074 51.6809 55.3966 52.2009 56.2854C52.4452 56.7039 52.6894 57.1225 52.9336 57.541C53.1028 57.8306 53.2725 58.1198 53.4426 58.4087C53.6941 58.8365 53.9432 59.2655 54.1919 59.6948C54.2692 59.8252 54.3465 59.9555 54.4262 60.0899C55.0897 61.2439 55.0897 61.2439 54.9609 61.9336C54.696 62.3267 54.696 62.3267 54.2773 62.6172C53.0126 62.7181 51.7573 62.4273 50.5147 62.2153C50.223 62.1659 49.931 62.1178 49.639 62.0698C49.4664 62.0404 49.2938 62.0111 49.116 61.9808C48.7224 61.939 48.4874 61.9243 48.125 62.0703C47.8811 62.3096 47.8811 62.3096 47.655 62.6257C47.5618 62.747 47.4685 62.8682 47.3725 62.9932C47.3198 63.0622 47.267 63.1313 47.2127 63.2025C46.8463 63.6769 46.4682 64.1421 46.0913 64.6082C46.0131 64.7059 45.935 64.8036 45.8545 64.9043C45.7807 64.9957 45.7069 65.0871 45.6309 65.1812C45.5318 65.3045 45.5318 65.3045 45.4307 65.4304C45.1411 65.7491 44.9631 65.7637 44.5276 65.813C44.0092 65.7603 43.8746 65.6967 43.5311 65.3281C43.0924 64.7547 42.7683 64.105 42.4255 63.4717C42.2566 63.1645 42.0875 62.8574 41.9181 62.5504C41.8352 62.3996 41.7522 62.2488 41.6667 62.0935C41.2275 61.3037 40.7655 60.5276 40.3037 59.7509C40.1702 59.525 40.0392 59.2972 39.9218 59.0625C39.8304 59.0791 39.7389 59.0956 39.6447 59.1127C36.3628 59.6854 33.3553 59.6561 30.0781 59.0625C30.0016 59.2021 29.9251 59.3417 29.8463 59.4855C28.8604 61.2763 27.8361 63.0443 26.7968 64.8047C26.7292 64.9262 26.6615 65.0478 26.5917 65.173C26.3867 65.4883 26.3867 65.4883 25.9765 65.7617C25.4481 65.8204 25.1401 65.8428 24.6921 65.5417C24.2781 65.1618 23.9492 64.7548 23.6096 64.3091C23.5092 64.1837 23.5092 64.1837 23.4068 64.0557C23.096 63.6646 22.8318 63.3004 22.597 62.857C22.3418 62.406 22.1955 62.1851 21.7382 61.9336C20.8451 61.8749 19.956 62.0842 19.0868 62.2685C16.5986 62.7938 16.5986 62.7938 15.7226 62.6172C15.3039 62.3267 15.3039 62.3267 15.039 61.9336C14.9671 61.2688 15.1124 60.8818 15.4396 60.3074C15.5251 60.1554 15.6106 60.0034 15.6987 59.8469C15.792 59.6851 15.8855 59.5233 15.979 59.3616C16.0741 59.1941 16.1692 59.0266 16.2641 58.8589C16.5369 58.3785 16.813 57.9 17.0898 57.4219C17.1567 57.3061 17.2236 57.1903 17.2925 57.071C17.8297 56.1438 18.3785 55.2245 18.9403 54.3121C19.023 54.1761 19.1058 54.0401 19.191 53.8999C19.3537 53.6326 19.518 53.3662 19.6841 53.1009C19.7576 52.9795 19.8312 52.858 19.907 52.7329C19.9734 52.6252 20.0399 52.5176 20.1084 52.4067C20.2661 52.01 20.2241 51.8091 20.0976 51.4063C19.9404 51.1198 19.774 50.8382 19.602 50.5603C18.2437 48.2625 17.4562 45.6021 17.3632 42.9297C17.3527 42.7092 17.3527 42.7092 17.3419 42.4843C17.2142 37.5587 19.0862 33.1103 22.4218 29.5313C29.2533 22.6104 40.1854 22.8363 47.2362 29.2033ZM24.1992 31.1719C24.1167 31.2455 24.0342 31.3192 23.9492 31.3951C21.1821 33.9683 19.8966 37.8679 19.6624 41.5465C19.5566 45.7157 21.2676 49.7009 24.0852 52.7215C26.9144 55.6401 30.9119 57.229 34.9487 57.3108C39.2619 57.2504 43.1448 55.5255 46.1677 52.4636C48.8576 49.6302 50.2587 45.8668 50.3637 41.9812C50.2442 37.5333 48.4541 33.6067 45.2443 30.5545C42.3731 27.9382 38.4115 26.5165 34.5369 26.6212C30.4716 26.942 27.1777 28.368 24.1992 31.1719ZM21.875 53.8672C21.7985 54.0068 21.722 54.1464 21.6432 54.2902C20.8545 55.7223 20.0406 57.1377 19.2051 58.5431C19.1257 58.6779 19.0462 58.8126 18.9644 58.9514C18.8929 59.0718 18.8214 59.1922 18.7477 59.3162C18.5725 59.5945 18.5725 59.5945 18.5937 59.8828C18.8729 59.8633 19.152 59.8433 19.4311 59.823C19.5866 59.8119 19.742 59.8008 19.9022 59.7894C20.3377 59.7492 20.7603 59.6815 21.1914 59.6094C21.4443 59.5848 21.698 59.5675 21.9519 59.5581C22.0761 59.5514 22.2004 59.5447 22.3284 59.5378C22.8538 59.6403 23.0295 59.8922 23.3789 60.293C23.4466 60.3693 23.5142 60.4456 23.584 60.5242C23.803 60.7726 24.0185 61.0237 24.2334 61.2756C24.3074 61.3615 24.3814 61.4475 24.4577 61.536C25.0022 62.1724 25.0022 62.1724 25.1562 62.4805C25.2464 62.4805 25.3367 62.4805 25.4297 62.4805C25.5123 62.3327 25.5123 62.3327 25.5967 62.1819C25.8035 61.8122 26.0105 61.4424 26.2174 61.0727C26.35 60.8357 26.4827 60.5986 26.6153 60.3616C27.0372 59.6077 27.4601 58.8545 27.8906 58.1055C27.7336 58.0226 27.5765 57.9398 27.4147 57.8545C25.4984 56.8275 23.8993 55.6393 22.3214 54.1481C22.0645 53.8519 22.0645 53.8519 21.875 53.8672ZM47.9882 53.8672C47.867 53.9941 47.7457 54.121 47.6208 54.2517C46.0269 55.8619 44.0932 57.0392 42.1093 58.1055C42.884 59.5921 43.7107 61.0414 44.5703 62.4805C45.0967 62.0604 45.5332 61.6584 45.946 61.1218C46.0869 60.945 46.0869 60.945 46.2307 60.7645C46.4799 60.4475 46.4799 60.4475 46.6483 60.1589C46.792 59.9341 46.792 59.9341 47.1679 59.6094C48.165 59.4391 49.1905 59.6454 50.1747 59.823C50.5912 59.8836 50.9859 59.8928 51.4062 59.8828C51.2165 59.3798 50.9896 58.9202 50.7258 58.4521C50.6458 58.3097 50.5658 58.1672 50.4834 58.0205C50.3988 57.8709 50.3142 57.7213 50.227 57.5671C50.1412 57.4146 50.0553 57.2621 49.9669 57.1049C49.3573 56.0232 48.7447 54.9431 48.125 53.8672C48.0798 53.8672 48.0347 53.8672 47.9882 53.8672Z" fill="white"/>
<path d="M41.445 33.1613C43.851 34.9763 45.3533 37.4837 45.8007 40.4688C45.8419 40.9537 45.8529 41.4348 45.852 41.9214C45.8518 42.0519 45.8516 42.1823 45.8513 42.3167C45.8312 43.4975 45.6229 44.5467 45.2539 45.6641C45.2144 45.7895 45.1749 45.915 45.1342 46.0443C44.2019 48.6749 42.0625 50.555 39.6826 51.8591C37.0538 53.0912 34.0396 53.1286 31.3086 52.2266C31.1203 52.1674 31.1203 52.1674 30.9283 52.1069C28.2992 51.1751 26.4083 49.0324 25.1135 46.6467C23.9618 44.1798 23.7914 41.2466 24.5661 38.6364C25.6128 35.7757 27.4997 33.5436 30.2148 32.1289C33.936 30.5335 38.1258 30.7643 41.445 33.1613ZM28.8476 36.0938C28.7604 36.1778 28.6731 36.2619 28.5833 36.3485C27.0546 37.9385 26.4514 40.1092 26.4657 42.2652C26.5409 44.6111 27.4817 46.48 29.1211 48.125C29.2051 48.2122 29.2892 48.2995 29.3758 48.3894C30.9658 49.9181 33.1365 50.5212 35.2925 50.5069C37.6384 50.4317 39.5073 49.4909 41.1523 47.8516C41.2395 47.7675 41.3268 47.6834 41.4167 47.5968C42.9454 46.0068 43.5485 43.8362 43.5342 41.6801C43.459 39.3342 42.5182 37.4653 40.8789 35.8203C40.7948 35.7331 40.7107 35.6458 40.6241 35.556C39.0341 34.0273 36.8635 33.4241 34.7074 33.4384C32.3615 33.5136 30.4926 34.4544 28.8476 36.0938Z" fill="white"/>
<path d="M35.4101 4.23847C36.0149 4.63453 36.2722 5.04928 36.5792 5.69645C36.6207 5.78303 36.6622 5.86961 36.705 5.95881C36.7918 6.14068 36.8778 6.32293 36.963 6.50554C37.0939 6.78572 37.2271 7.06466 37.3608 7.34348C38.0078 8.70455 38.0078 8.70455 38.0078 9.02362C38.1581 9.04147 38.3085 9.05931 38.4635 9.0777C39.0223 9.14464 39.5807 9.21468 40.139 9.28565C40.3805 9.31591 40.6221 9.34533 40.8638 9.3739C41.2117 9.41515 41.559 9.45942 41.9064 9.50428C42.0681 9.52247 42.0681 9.52247 42.2331 9.54103C42.7037 9.60446 43.0227 9.67461 43.4064 9.9613C43.6595 10.3196 43.715 10.6174 43.6923 11.0546C43.5329 11.6457 43.0839 12.0256 42.6562 12.4416C42.5776 12.5234 42.499 12.6051 42.418 12.6894C41.9267 13.1966 41.4063 13.6607 40.8644 14.1132C40.5431 14.414 40.2959 14.6644 40.0585 15.0392C40.0723 15.4261 40.1105 15.7273 40.1942 16.0988C40.2138 16.1994 40.2335 16.3 40.2537 16.4036C40.3166 16.7243 40.3838 17.0438 40.4516 17.3635C40.518 17.6832 40.5835 18.0029 40.6466 18.3233C40.686 18.5223 40.7273 18.7209 40.7707 18.919C40.9123 19.6249 40.8241 20.019 40.4516 20.6191C40.0333 20.884 39.5777 20.8363 39.1015 20.7814C38.639 20.591 38.639 20.591 38.1861 20.328C38.1047 20.2822 38.0232 20.2363 37.9392 20.1891C37.6816 20.0441 37.4259 19.8962 37.1704 19.7475C36.8325 19.551 36.4931 19.3576 36.1525 19.1659C36.0033 19.0793 35.8542 18.9926 35.7006 18.9034C35.1935 18.6984 34.9726 18.7107 34.4531 18.8674C34.0428 19.056 34.0428 19.056 33.6338 19.2994C33.481 19.3853 33.3282 19.4713 33.1708 19.5598C32.9315 19.696 32.6927 19.833 32.4546 19.9712C30.7863 20.9343 30.7863 20.9343 29.8046 20.7814C29.4628 20.5934 29.4628 20.5934 29.2578 20.2346C29.1486 19.44 29.2805 18.7083 29.4794 17.9386C29.9858 16.2364 29.9858 16.2364 29.7901 14.5349C29.3488 13.9107 28.7795 13.4615 28.1529 13.0321C27.8246 12.8064 27.5346 12.5482 27.2412 12.2792C27.1629 12.2153 27.0847 12.1513 27.004 12.0854C26.6782 11.7856 26.4228 11.5147 26.3274 11.0744C26.3272 10.9842 26.327 10.8939 26.3269 10.801C26.3242 10.7107 26.3216 10.6205 26.3188 10.5275C26.4207 10.117 26.6044 9.97138 26.9335 9.70722C27.296 9.6134 27.6211 9.55006 27.9894 9.50428C28.0908 9.48988 28.1922 9.47548 28.2967 9.46064C28.6197 9.41535 28.9429 9.3733 29.2663 9.33124C29.4843 9.301 29.7023 9.27057 29.9203 9.23992C31.4813 9.02362 31.4813 9.02362 31.9921 9.02362C32.0298 8.90495 32.0675 8.78627 32.1063 8.664C32.3673 7.90906 32.7183 7.19833 33.0603 6.47724C33.1315 6.3225 33.2028 6.16776 33.2763 6.00833C33.3469 5.85959 33.4175 5.71084 33.4902 5.55759C33.5853 5.35493 33.5853 5.35493 33.6823 5.14817C34.1142 4.44819 34.5789 4.09993 35.4101 4.23847ZM34.8632 8.20331C34.8127 8.31813 34.8127 8.31813 34.7611 8.43526C34.6065 8.78333 34.4486 9.12989 34.2907 9.47651C34.2113 9.65719 34.2113 9.65719 34.1302 9.84153C33.9107 10.3187 33.7271 10.7122 33.3422 11.0744C32.7308 11.2871 32.1116 11.3631 31.4709 11.4418C31.337 11.4595 31.2032 11.4773 31.0653 11.4955C30.7364 11.5388 30.4073 11.5807 30.0781 11.6213C30.5405 12.1793 31.0025 12.6971 31.5564 13.1679C32.2499 13.7592 32.2499 13.7592 32.2885 14.2184C32.2948 14.9985 32.2122 15.7188 32.052 16.4823C31.9761 16.8497 31.9761 16.8497 31.9921 17.3635C32.7824 17.1278 33.4406 16.7464 34.1497 16.3327C34.6434 16.1087 34.8758 16.0493 35.4101 16.133C35.8263 16.3086 36.2145 16.5244 36.6064 16.7482C36.8134 16.8641 37.0206 16.9794 37.228 17.0943C37.3188 17.1459 37.4095 17.1974 37.5029 17.2505C37.7324 17.3835 37.7324 17.3835 38.0078 17.3635C37.9241 16.5442 37.9241 16.5442 37.7941 15.7314C37.5752 14.199 37.5752 14.199 38.0078 13.5097C38.1397 13.3766 38.2771 13.2488 38.4179 13.1252C38.5085 13.045 38.5991 12.9648 38.6924 12.8822C38.8784 12.7199 39.0663 12.5596 39.2564 12.4021C39.5187 12.1617 39.7125 11.9078 39.9218 11.6213C39.826 11.6104 39.7302 11.5996 39.6315 11.5884C39.1948 11.5361 38.7596 11.4763 38.3239 11.4162C38.1732 11.3993 38.0224 11.3824 37.867 11.3649C36.7791 11.2072 36.7791 11.2072 36.3988 10.8426C36.2194 10.5622 36.085 10.2877 35.957 9.98066C35.875 9.8154 35.793 9.65019 35.7108 9.48505C35.6426 9.33278 35.5744 9.18051 35.5041 9.02362C35.4341 8.86853 35.3642 8.71344 35.2921 8.55365C35.2408 8.43804 35.1895 8.32243 35.1367 8.20331C35.0464 8.20331 34.9562 8.20331 34.8632 8.20331Z" fill="white"/>
<path d="M58.5925 14.1183C59.2583 14.4542 59.4378 14.893 59.7461 15.5517C59.799 15.6583 59.8518 15.7649 59.9063 15.8748C59.9877 16.0395 59.9877 16.0395 60.0708 16.2075C60.1581 16.3808 60.1581 16.3808 60.2471 16.5577C60.4297 16.953 60.4297 16.953 60.6032 17.4523C60.8057 17.9989 61.0114 18.4142 61.3867 18.8671C62.1536 19.1884 62.905 19.2468 63.728 19.3029C64.0464 19.3325 64.3644 19.3646 64.6824 19.3979C64.8792 19.4177 65.0762 19.4349 65.2735 19.4491C65.855 19.4975 66.2507 19.6082 66.7188 19.9609C66.9401 20.4037 66.9366 20.8496 66.8555 21.328C66.6239 21.6565 66.436 21.8774 66.1473 22.143C66.0751 22.2137 66.0029 22.2843 65.9286 22.3571C65.6988 22.5807 65.4655 22.8003 65.2319 23.0199C65.0759 23.1705 64.9201 23.3212 64.7646 23.4723C64.4801 23.7479 64.1942 24.0221 63.9065 24.2944C63.7022 24.488 63.4998 24.6837 63.3008 24.8827C63.3388 25.2195 63.3923 25.5326 63.4631 25.8627C63.5027 26.0631 63.5422 26.2634 63.5817 26.4638C63.6458 26.7793 63.7107 27.0945 63.7762 27.4097C63.839 27.714 63.899 28.0188 63.9587 28.3237C63.979 28.4166 63.9992 28.5095 64.02 28.6052C64.1473 29.2618 64.0886 29.7296 63.8477 30.3515C63.54 30.6249 63.54 30.6249 63.1641 30.7616C62.5422 30.7043 62.0797 30.5226 61.5304 30.2324C61.3807 30.1539 61.231 30.0754 61.0767 29.9945C60.9224 29.9121 60.7681 29.8297 60.6091 29.7448C60.4532 29.6629 60.2974 29.5811 60.1368 29.4967C59.0005 28.8974 59.0005 28.8974 58.5156 28.5741C57.9417 28.6187 57.5129 28.8597 57.0165 29.1381C56.8621 29.2234 56.7076 29.3087 56.5484 29.3966C56.3055 29.5321 56.0629 29.6681 55.8204 29.8043C55.5845 29.9365 55.3478 30.0671 55.111 30.1977C54.9707 30.2763 54.8305 30.3549 54.6859 30.4359C54.2626 30.6318 53.9212 30.7251 53.457 30.7616C52.6898 30.4576 52.6898 30.4576 52.5 30.078C52.4363 29.0016 52.6363 28.0112 52.8503 26.9592C52.9171 26.6309 52.9828 26.3025 53.0474 25.9738C53.0768 25.8299 53.1061 25.6859 53.1364 25.5376C53.1821 25.1684 53.1787 24.9533 53.0469 24.6093C52.8016 24.3091 52.8016 24.3091 52.4915 24.0197C52.3802 23.912 52.269 23.8043 52.1545 23.6934C51.7723 23.3378 51.3817 22.9943 50.9859 22.6541C49.6499 21.4753 49.6499 21.4753 49.5947 20.7299C49.632 20.1893 49.6548 20.0527 50.0391 19.6874C50.4053 19.5858 50.7339 19.5172 51.1072 19.4653C51.2103 19.4492 51.3133 19.4331 51.4195 19.4165C51.6313 19.3838 51.8432 19.3522 52.0553 19.3217C52.3402 19.2806 52.6243 19.2365 52.9086 19.1913C53.694 19.0706 54.4382 18.9908 55.2344 19.0038C55.2715 18.8865 55.3087 18.7691 55.3469 18.6482C55.5952 17.9312 55.9189 17.2526 56.2427 16.567C56.3226 16.3969 56.4013 16.2263 56.4789 16.0551C56.5921 15.8059 56.7089 15.5583 56.8259 15.3108C56.8943 15.1635 56.9627 15.0163 57.0332 14.8645C57.4408 14.262 57.8736 14.0647 58.5925 14.1183ZM58.2422 18.0468C58.1309 18.2718 58.1309 18.2718 58.0173 18.5013C57.9186 18.7001 57.8198 18.899 57.7209 19.0978C57.6722 19.1964 57.6235 19.295 57.5733 19.3966C57.4772 19.5897 57.3798 19.7821 57.2811 19.9739C57.1711 20.1899 57.0682 20.4096 56.9674 20.63C56.5378 21.1698 55.8992 21.1743 55.2488 21.2682C54.8899 21.3083 54.531 21.3482 54.1721 21.3879C53.7198 21.423 53.7198 21.423 53.457 21.7382C53.5192 21.7925 53.5813 21.8467 53.6453 21.9026C55.3909 23.4538 55.3909 23.4538 55.6536 24.2072C55.653 24.5945 55.6023 24.9175 55.5078 25.2929C55.4589 25.5634 55.4105 25.834 55.3625 26.1047C55.3356 26.2243 55.3086 26.344 55.2808 26.4673C55.2324 26.811 55.2783 27.0143 55.3711 27.3437C55.6037 27.2104 55.6037 27.2104 55.8411 27.0745C56.0489 26.959 56.2569 26.8437 56.4648 26.7284C56.5665 26.6698 56.6682 26.6111 56.773 26.5506C57.4502 26.1796 58.015 25.9454 58.7891 26.1132C59.2194 26.2815 59.6118 26.4967 60.011 26.7284C60.2172 26.844 60.4235 26.9593 60.63 27.0745C60.7197 27.1261 60.8093 27.1776 60.9018 27.2307C61.0934 27.3544 61.0934 27.3544 61.25 27.3437C61.1727 26.3702 61.1727 26.3702 61.0364 25.404C60.8395 24.1384 60.8395 24.1384 61.1565 23.6464C61.4039 23.3603 61.6623 23.0954 61.9336 22.832C62.0217 22.7422 62.1098 22.6525 62.2006 22.5601C62.4283 22.3291 62.6586 22.1015 62.8906 21.8749C62.9809 21.7847 63.0711 21.6945 63.1641 21.6015C62.9734 21.561 62.7825 21.5213 62.5916 21.4819C62.468 21.4563 62.3445 21.4307 62.2172 21.4044C61.9229 21.3509 61.6266 21.308 61.3296 21.273C61.1736 21.2545 61.0176 21.236 60.8569 21.217C60.6375 21.1945 60.6375 21.1945 60.4137 21.1716C59.8887 21.0158 59.7645 20.8323 59.4727 20.371C59.2641 19.9758 59.0759 19.5732 58.8916 19.1662C58.8419 19.0584 58.7922 18.9506 58.741 18.8396C58.6195 18.5757 58.4991 18.3113 58.3789 18.0468C58.3338 18.0468 58.2887 18.0468 58.2422 18.0468Z" fill="white"/>
<path d="M12.5781 14.3554C12.8101 14.6657 12.9577 14.9083 13.1164 15.2526C13.1606 15.3419 13.2049 15.4312 13.2505 15.5232C13.3943 15.816 13.533 16.111 13.6718 16.4062C13.7758 16.6206 13.8799 16.835 13.9843 17.0492C14.7656 18.6698 14.7656 18.6698 14.7656 19.0038C14.859 19.009 14.9524 19.0141 15.0486 19.0193C16.0793 19.0866 17.0999 19.2022 18.1237 19.3371C18.2555 19.3538 18.3873 19.3705 18.523 19.3877C18.648 19.4047 18.7731 19.4216 18.9019 19.4391C19.0137 19.454 19.1255 19.4689 19.2408 19.4842C19.6802 19.5785 20.0034 19.6922 20.2685 20.0634C20.413 20.4968 20.4503 20.7336 20.371 21.1913C20.0973 21.5997 19.7596 21.937 19.414 22.2851C19.3053 22.3974 19.1965 22.5096 19.0845 22.6253C18.4692 23.252 17.8434 23.8455 17.1576 24.3946C16.9063 24.6585 16.8708 24.7966 16.8164 25.1562C16.8599 25.5485 16.8599 25.5485 16.9525 25.9738C16.9838 26.1331 17.0151 26.2923 17.0473 26.4564C17.115 26.7889 17.1826 27.1214 17.2503 27.454C17.7041 29.7639 17.7041 29.7639 17.2778 30.4199C16.8709 30.6768 16.6151 30.7338 16.1328 30.7617C15.7677 30.621 15.4557 30.4779 15.1159 30.2917C15.0218 30.2426 14.9276 30.1935 14.8306 30.143C14.3382 29.8849 13.8517 29.6165 13.3658 29.3464C13.2736 29.2957 13.1814 29.245 13.0865 29.1928C12.9103 29.0955 12.735 28.9965 12.5608 28.8957C12.1284 28.6409 12.1284 28.6409 11.6433 28.6063C11.2643 28.7404 10.9217 28.9161 10.5658 29.1034C10.3408 29.2212 10.3408 29.2212 10.1113 29.3413C9.9553 29.4237 9.79933 29.5061 9.63863 29.591C9.3296 29.7532 9.02056 29.9154 8.7115 30.0775C8.57466 30.1497 8.43781 30.2218 8.29681 30.2962C8.11506 30.3912 8.11506 30.3912 7.92964 30.4882C7.78279 30.5691 7.78279 30.5691 7.63298 30.6517C7.23759 30.8255 6.96899 30.7435 6.56246 30.6249C6.23775 30.4284 6.23775 30.4284 6.01558 30.0781C5.90017 29.2838 6.0394 28.5504 6.24202 27.7821C6.75691 26.0802 6.75691 26.0802 6.53889 24.385C6.06294 23.7618 5.45129 23.3229 4.80214 22.8926C4.12667 22.4337 3.31429 21.811 3.03821 21.0258C2.99984 20.5223 3.12491 20.2584 3.43802 19.8727C3.89066 19.4991 4.15122 19.4357 4.7285 19.3643C4.90086 19.3419 5.07323 19.3194 5.25081 19.2962C5.42987 19.2759 5.60893 19.2555 5.79341 19.2346C5.97142 19.2116 6.14942 19.1886 6.33281 19.1649C7.14494 19.0633 7.93059 18.9922 8.74996 19.0038C8.7638 18.9095 8.77765 18.8152 8.79191 18.718C8.90453 18.2453 9.09134 17.8601 9.30911 17.4257C9.35076 17.3424 9.3924 17.259 9.43531 17.1731C9.52306 16.9979 9.61121 16.8229 9.69974 16.6481C9.83521 16.3805 9.96919 16.1121 10.103 15.8436C10.8745 14.3074 10.8745 14.3074 11.3049 14.1161C11.7931 14.0634 12.1228 14.1752 12.5781 14.3554ZM11.6211 18.1835C11.5811 18.2608 11.5411 18.338 11.4999 18.4176C11.3186 18.7671 11.1366 19.1162 10.9545 19.4653C10.8916 19.5869 10.8287 19.7085 10.7639 19.8338C10.7031 19.9501 10.6423 20.0664 10.5796 20.1862C10.5238 20.2936 10.4679 20.401 10.4104 20.5117C10.2539 20.7812 10.2539 20.7812 9.98043 21.0546C9.68583 21.1233 9.68583 21.1233 9.32567 21.1711C9.19702 21.1887 9.06836 21.2063 8.93581 21.2245C8.80116 21.2417 8.66652 21.259 8.52779 21.2768C8.39208 21.2951 8.25638 21.3135 8.11656 21.3323C7.78094 21.3775 7.44522 21.4216 7.10933 21.4648C7.06716 21.8646 7.06716 21.8646 7.27032 22.0803C7.34391 22.1509 7.4175 22.2215 7.49332 22.2942C7.61268 22.4106 7.61268 22.4106 7.73445 22.5294C7.8186 22.6095 7.90275 22.6896 7.98946 22.7722C8.15477 22.9315 8.31981 23.0912 8.48453 23.2512C8.59515 23.3568 8.59515 23.3568 8.708 23.4646C9.09046 23.8663 9.05069 24.259 9.04636 24.7946C9.01369 25.309 8.91583 25.8038 8.80977 26.3076C8.74995 26.6602 8.73969 26.9869 8.74996 27.3437C8.90469 27.2663 9.05943 27.189 9.21886 27.1092C11.4487 25.9943 11.4487 25.9943 12.3046 26.1132C12.7395 26.2773 13.1331 26.4965 13.5351 26.7285C13.641 26.7871 13.747 26.8458 13.8561 26.9063C14.1148 27.05 14.372 27.1966 14.6289 27.3437C14.8381 26.716 14.6282 26.121 14.4959 25.4876C14.2795 24.3772 14.2795 24.3772 14.4921 23.789C14.8061 23.3967 15.1606 23.0562 15.5261 22.7123C15.6233 22.6182 15.7205 22.5241 15.8206 22.4272C16.0599 22.1959 16.3007 21.9664 16.5429 21.7382C16.2198 21.4151 16.1062 21.4171 15.6639 21.3676C15.4838 21.3448 15.4838 21.3448 15.3002 21.3217C15.0475 21.2919 14.7947 21.263 14.5418 21.2351C13.6313 21.1178 13.6313 21.1178 13.2115 20.8421C12.8868 20.3559 12.6457 19.8442 12.4072 19.3115C12.3575 19.2031 12.3078 19.0947 12.2566 18.983C12.1348 18.717 12.0145 18.4503 11.8945 18.1835C11.8043 18.1835 11.714 18.1835 11.6211 18.1835Z" fill="white"/>
<path d="M39.6484 38.6916C40.0674 38.9709 40.1709 39.162 40.3235 39.6401C40.3362 40.2653 40.0446 40.6016 39.6421 41.0634C39.535 41.1736 39.4279 41.2838 39.3175 41.3973C39.1956 41.5232 39.0737 41.649 38.9481 41.7787C38.8153 41.9142 38.6824 42.0496 38.5493 42.1849C38.4819 42.2536 38.4144 42.3224 38.3449 42.3932C37.988 42.7567 37.6301 43.1191 37.2715 43.4809C36.9026 43.8537 36.5372 44.2299 36.1726 44.6069C35.8903 44.8974 35.6053 45.1851 35.3196 45.4721C35.1837 45.6096 35.0488 45.7481 34.9151 45.8877C33.7398 47.111 33.7398 47.111 32.9518 47.1439C32.5991 47.0996 32.4303 47.0507 32.1355 46.8481C32.082 46.7609 32.0286 46.6737 31.9735 46.5839C31.9096 46.4839 31.8458 46.3838 31.78 46.2807C31.7146 46.1675 31.6493 46.0543 31.582 45.9377C31.507 45.815 31.432 45.6923 31.3547 45.5659C31.113 45.1637 30.881 44.7571 30.6506 44.3484C30.5707 44.2102 30.4908 44.072 30.4084 43.9297C30.3324 43.7954 30.2563 43.6611 30.178 43.5227C30.1095 43.4022 30.0409 43.2817 29.9703 43.1576C29.7875 42.7553 29.7075 42.4124 29.668 41.9729C29.837 41.5814 29.9867 41.3586 30.3259 41.1013C30.7498 40.9802 31.0237 41.0296 31.4453 41.1526C32.063 41.6635 32.3995 42.3612 32.7879 43.0479C32.9259 43.2862 33.0735 43.5188 33.2227 43.7502C33.5103 43.7804 33.5103 43.7804 33.7137 43.5582C33.8426 43.4234 33.8426 43.4234 33.9741 43.2859C34.0719 43.1846 34.1696 43.0833 34.2703 42.979C34.429 42.813 34.429 42.813 34.5909 42.6436C34.8154 42.413 35.0401 42.1825 35.2649 41.952C35.6199 41.5869 35.974 41.221 36.3259 40.8529C36.6651 40.4988 37.0077 40.1483 37.3509 39.7982C37.5071 39.6322 37.5071 39.6322 37.6665 39.4629C38.3318 38.7912 38.6948 38.5308 39.6484 38.6916Z" fill="white"/>
</svg>
