<svg width="65" height="48" viewBox="0 0 65 48" fill="none" xmlns="http://www.w3.org/2000/svg">
<path d="M64.5834 23.9998L52.9168 12.3332V21.0832H26.6668V26.9165H52.9168V35.6665M0.416748 41.4998V6.49984C0.416748 4.95274 1.03133 3.46901 2.12529 2.37505C3.21925 1.28109 4.70299 0.666504 6.25008 0.666504H41.2501C42.7972 0.666504 44.2809 1.28109 45.3749 2.37505C46.4688 3.46901 47.0834 4.95274 47.0834 6.49984V15.2498H41.2501V6.49984H6.25008V41.4998H41.2501V32.7498H47.0834V41.4998C47.0834 43.0469 46.4688 44.5307 45.3749 45.6246C44.2809 46.7186 42.7972 47.3332 41.2501 47.3332H6.25008C4.70299 47.3332 3.21925 46.7186 2.12529 45.6246C1.03133 44.5307 0.416748 43.0469 0.416748 41.4998Z" fill="white"/>
</svg>
