<svg width="73" height="72" viewBox="0 0 73 72" fill="none" xmlns="http://www.w3.org/2000/svg">
<path d="M46.1085 35.8795C46.477 36.1919 46.8326 36.5157 47.1874 36.8435C47.3427 36.9817 47.3427 36.9817 47.5011 37.1226C49.9911 39.4486 51.6326 43.0625 51.8592 46.4491C51.9991 50.6926 51.1867 54.6728 48.3124 57.9373C48.2191 58.0508 48.1257 58.1642 48.0296 58.2812C45.6976 61.0312 42.4126 62.6844 38.8906 63.281C38.7834 63.2995 38.6763 63.318 38.5659 63.3371C34.717 63.8755 30.6009 62.8509 27.4648 60.5652C27.1923 60.3492 26.9227 60.1294 26.6562 59.906C26.5144 59.7873 26.3727 59.6686 26.2266 59.5462C23.4344 57.1346 21.6442 53.7201 21.1718 50.0623C21.1309 49.3938 21.1248 48.728 21.1279 48.0584C21.1287 47.8775 21.1295 47.6966 21.1303 47.5103C21.1465 46.2443 21.2225 45.092 21.5937 43.8748C21.6216 43.7808 21.6496 43.6868 21.6784 43.5899C22.837 39.7684 25.3812 36.493 28.9007 34.5611C34.3733 31.6808 41.1974 31.8771 46.1085 35.8795ZM30.8749 36.281C30.7439 36.3447 30.6128 36.4083 30.4778 36.4738C27.2072 38.157 25.158 40.972 23.9486 44.3703C22.977 47.6 23.4414 51.1764 24.9632 54.1541C26.6209 57.1891 29.3265 59.3261 32.5624 60.4685C33.1675 60.6461 33.7695 60.7824 34.3906 60.8904C34.6647 60.9383 34.6647 60.9383 34.9443 60.9871C38.2335 61.3092 41.7178 60.4927 44.3529 58.4383C44.9059 57.9728 45.4184 57.4711 45.9218 56.9529C46.0286 56.8458 46.1354 56.7386 46.2454 56.6283C48.7556 53.9719 49.58 50.5943 49.4946 47.0383C49.3651 44.2704 48.1961 41.7994 46.4843 39.656C46.422 39.5707 46.3596 39.4853 46.2954 39.3973C44.6969 37.3262 41.9486 35.8949 39.4531 35.2967C39.3351 35.2653 39.2171 35.2339 39.0955 35.2016C36.3536 34.5767 33.3764 35.0536 30.8749 36.281Z" fill="white"/>
<path d="M38.3281 8.99994C39.1557 9.56048 39.5082 10.2336 39.9453 11.1181C40.0159 11.2569 40.0865 11.3957 40.1592 11.5387C40.3949 12.0038 40.6274 12.4704 40.8594 12.9374C40.9477 13.1148 41.036 13.2921 41.1243 13.4695C41.1691 13.5595 41.214 13.6495 41.2601 13.7423C41.3507 13.9242 41.4414 14.1061 41.5321 14.288C41.7521 14.7295 41.9714 15.1713 42.189 15.614C42.2683 15.7743 42.3476 15.9347 42.4293 16.0999C42.4996 16.2428 42.5699 16.3857 42.6423 16.5329C42.8139 16.8873 42.8139 16.8873 43.1094 17.1562C43.5011 17.2523 43.5011 17.2523 43.9669 17.3177C44.1448 17.3456 44.3227 17.3735 44.506 17.4023C44.6007 17.4166 44.6955 17.4309 44.7931 17.4457C45.0886 17.4904 45.3837 17.5368 45.6789 17.5836C46.6167 17.7315 47.5553 17.8726 48.4954 18.0054C48.6521 18.0284 48.8088 18.0513 48.9703 18.075C49.2612 18.1174 49.5525 18.1578 49.844 18.1957C50.8993 18.3513 51.8163 18.6519 52.5532 19.4556C52.6156 19.5611 52.678 19.6666 52.7422 19.7753C52.8075 19.8816 52.8727 19.9878 52.94 20.0972C53.2309 20.6521 53.2696 21.1246 53.2871 21.7441C53.294 21.9083 53.3009 22.0726 53.308 22.2418C53.1311 23.5382 52.2726 24.3855 51.3623 25.2597C51.2609 25.3598 51.1595 25.4598 51.055 25.5629C50.4815 26.1245 49.8914 26.6611 49.2846 27.1863C48.8576 27.5602 48.4466 27.9487 48.0401 28.3447C47.9591 28.4204 47.8782 28.496 47.7948 28.574C47.4336 28.9275 47.2138 29.1715 47.0513 29.6564C47.0458 30.2036 47.137 30.7125 47.249 31.2451C47.7097 33.6564 47.7097 33.6564 47.2315 34.4003C46.8586 34.6221 46.6389 34.7239 46.2031 34.7343C45.432 34.4621 45.432 34.4621 45.2038 33.9914C44.9871 33.3325 44.8862 32.6572 44.7705 31.9746C44.7438 31.8297 44.717 31.6849 44.6895 31.5357C44.4604 30.1915 44.3611 29.0353 45.131 27.8641C45.5632 27.2933 46.0799 26.8113 46.597 26.3182C46.8383 26.0829 47.0796 25.8476 47.3207 25.6121C47.6991 25.2451 48.0781 24.879 48.4587 24.5143C48.8276 24.1597 49.1934 23.8022 49.5589 23.4442C49.6736 23.3359 49.7883 23.2277 49.9064 23.1161C50.536 22.4986 50.536 22.4986 50.8098 21.6763C50.7451 21.2323 50.7451 21.2323 50.4606 21.0045C50.0978 20.7867 49.8332 20.7282 49.4149 20.6724C49.2703 20.6522 49.1256 20.632 48.9766 20.6112C48.8209 20.5909 48.6652 20.5707 48.5048 20.5499C48.1733 20.5032 47.8419 20.4565 47.5105 20.4098C46.9895 20.3384 46.4683 20.2677 45.947 20.198C45.4428 20.1299 44.9392 20.0588 44.4354 19.9874C44.2814 19.9677 44.1274 19.9481 43.9688 19.9278C42.7524 19.7535 41.614 19.4699 40.8183 18.4706C40.3756 17.8067 40.0295 17.095 39.6882 16.3751C39.588 16.1678 39.588 16.1678 39.4858 15.9563C39.2745 15.5189 39.0649 15.0808 38.8555 14.6425C38.6438 14.2014 38.4318 13.7604 38.2191 13.3197C38.0873 13.0465 37.9562 12.7729 37.8257 12.499C37.7665 12.376 37.7073 12.2529 37.6463 12.1262C37.5945 12.0178 37.5427 11.9094 37.4894 11.7977C37.3478 11.5088 37.3478 11.5088 37.0625 11.2499C36.4876 11.1525 36.4876 11.1525 35.9375 11.2499C35.7357 11.4589 35.7357 11.4589 35.5881 11.7386C35.529 11.841 35.4698 11.9434 35.4089 12.049C35.1277 12.5742 34.865 13.1061 34.6109 13.645C34.4953 13.8861 34.3797 14.1273 34.264 14.3684C34.0852 14.7431 33.9069 15.1179 33.7291 15.4931C33.5554 15.859 33.3801 16.2242 33.2047 16.5893C33.1528 16.6999 33.1009 16.8106 33.0474 16.9245C32.4797 18.1019 31.9336 19.0032 30.7041 19.5516C30.0042 19.7944 29.2972 19.8939 28.5646 19.9874C28.4025 20.0103 28.2404 20.0333 28.0734 20.057C27.5603 20.1295 27.0468 20.1988 26.5332 20.2675C26.0166 20.3375 25.5002 20.4083 24.984 20.4811C24.6641 20.5261 24.3438 20.5695 24.0234 20.6112C23.8788 20.6314 23.7341 20.6516 23.5851 20.6724C23.4582 20.6894 23.3313 20.7063 23.2005 20.7237C22.8088 20.8256 22.5903 20.957 22.2969 21.2343C22.1479 21.6882 22.1479 21.6882 22.2969 22.2187C22.6504 22.7041 23.0775 23.1035 23.5125 23.5156C23.6983 23.6978 23.6983 23.6978 23.8878 23.8837C24.2168 24.2058 24.5477 24.5258 24.8798 24.8446C25.3466 25.2934 25.8106 25.7451 26.2737 26.1978C26.5201 26.4384 26.7676 26.6777 27.0165 26.9157C27.9444 27.8172 28.3956 28.5067 28.483 29.811C28.4854 30.5438 28.3685 31.2464 28.2383 31.9658C28.2024 32.1861 28.2024 32.1861 28.1658 32.411C28.0383 33.1482 27.92 33.8184 27.5 34.4531C27.0342 34.6728 27.0342 34.6728 26.5156 34.7343C25.739 34.4467 25.739 34.4467 25.5313 34.0312C25.4243 32.9763 25.5986 31.9676 25.8154 30.9396C25.9387 30.325 25.9691 29.8569 25.8125 29.2499C25.5738 28.913 25.5738 28.913 25.2539 28.6177C25.0813 28.4476 25.0813 28.4476 24.9053 28.2741C24.7841 28.1582 24.663 28.0422 24.5381 27.9228C24.362 27.7497 24.362 27.7497 24.1824 27.5732C23.5623 26.9676 22.928 26.3842 22.2722 25.8177C19.8808 23.7297 19.8808 23.7297 19.7102 22.3242C19.6516 21.0599 19.851 20.1073 20.6967 19.1475C22.1711 17.8507 25.0453 17.9139 26.9199 17.6554C27.3025 17.6023 27.685 17.5482 28.0675 17.494C28.1838 17.4783 28.3001 17.4627 28.4199 17.4465C29.2539 17.3286 29.2539 17.3286 30.0313 17.0156C30.2677 16.6528 30.4579 16.3125 30.6465 15.9257C30.7334 15.7548 30.7334 15.7548 30.8221 15.5804C31.03 15.1695 31.234 14.7568 31.4375 14.3437C31.5239 14.1684 31.6103 13.9932 31.6967 13.8179C31.7644 13.6806 31.7644 13.6806 31.8335 13.5405C32.0207 13.1613 32.2085 12.7825 32.3963 12.4036C32.5341 12.1243 32.6703 11.8442 32.8063 11.564C32.8929 11.3881 32.9796 11.2122 33.0662 11.0363C33.142 10.8809 33.2177 10.7256 33.2957 10.5656C33.6769 9.89677 34.1003 9.28138 34.8213 8.956C34.9128 8.91304 35.0044 8.87007 35.0987 8.82581C36.1797 8.40672 37.2956 8.48014 38.3281 8.99994Z" fill="white"/>
<path d="M60.8458 22.0078C61.7689 22.5457 62.2128 23.336 62.5228 24.3386C62.8465 25.3291 63.1612 26.2595 63.9219 27C65.1469 27.523 66.4719 27.5523 67.7862 27.6189C68.5644 27.6712 69.1206 27.8688 69.6876 28.4063C70.2683 29.1177 70.3567 29.7453 70.3204 30.6579C70.082 32.0823 68.7036 33.0836 67.6105 33.9006C67.1888 34.2487 66.8849 34.5509 66.5938 35.0156C66.5284 35.8008 66.6929 36.5049 66.8751 37.2656C66.9609 37.6575 67.0424 38.0501 67.1212 38.4434C67.1402 38.537 67.1593 38.6307 67.179 38.7271C67.341 39.5948 67.3127 40.3996 66.87 41.1781C66.409 41.7916 65.8947 42.1016 65.1502 42.2518C63.8244 42.3689 62.7901 41.683 61.6719 41.0625C61.3625 40.8934 61.0521 40.7262 60.7403 40.5615C60.6138 40.4918 60.4872 40.422 60.3569 40.3501C59.7736 40.1444 59.312 40.2845 58.7547 40.528C58.6263 40.5971 58.4979 40.6662 58.3656 40.7373C58.2243 40.8124 58.083 40.8874 57.9374 40.9647C57.7195 41.0828 57.7195 41.0828 57.4971 41.2031C57.2067 41.3587 56.9161 41.514 56.6254 41.669C56.4974 41.738 56.3695 41.8071 56.2377 41.8783C55.4422 42.2831 54.5013 42.3615 53.642 42.0963C53.0217 41.7766 52.528 41.2792 52.2501 40.6406C52.0396 39.8511 52.1426 39.3238 52.3682 38.5401C52.9568 36.6419 52.9568 36.6419 52.6858 34.7451C51.9618 33.6119 50.8495 32.7482 49.7905 31.9429C49.33 31.5485 49.1813 31.2838 49.1091 30.6887C49.097 29.7494 49.1158 29.145 49.7188 28.4063C50.3697 27.7902 51.0352 27.6477 51.9095 27.5993C54.0314 27.5552 54.0314 27.5552 55.8558 26.6544C56.4214 25.84 56.7498 24.9516 57.0434 24.0101C57.3668 23.0413 57.8551 22.393 58.7628 21.9024C59.5083 21.6943 60.1395 21.7026 60.8458 22.0078ZM59.5626 24.1875C59.4733 24.3737 59.4733 24.3737 59.3823 24.5636C59.1595 25.0272 58.934 25.4894 58.7077 25.9513C58.6104 26.1508 58.5139 26.3506 58.4181 26.5508C58.2796 26.8397 58.1386 27.1273 57.997 27.4148C57.9552 27.5034 57.9134 27.5921 57.8704 27.6834C57.4759 28.473 57.0128 28.9394 56.1932 29.2849C55.7397 29.3971 55.295 29.4744 54.8319 29.5362C54.6582 29.5601 54.4845 29.5839 54.3056 29.6084C54.1261 29.6323 53.9467 29.6561 53.7618 29.6807C53.4036 29.7288 53.0454 29.7773 52.6873 29.8263C52.5292 29.8473 52.3711 29.8683 52.2082 29.89C51.8339 29.933 51.8339 29.933 51.5469 30.0938C51.7554 30.577 52.0292 30.8935 52.3995 31.2649C52.5675 31.4335 52.5675 31.4335 52.739 31.6055C52.8561 31.7215 52.9732 31.8375 53.0938 31.9571C53.2109 32.0752 53.328 32.1934 53.4487 32.3152C53.5607 32.4269 53.6727 32.5385 53.7882 32.6536C53.8909 32.756 53.9937 32.8585 54.0996 32.9641C54.3379 33.2181 54.3379 33.2181 54.6407 33.1875C55.4985 34.7805 55.0954 36.3719 54.7837 38.0716C54.6788 38.6554 54.619 39.2006 54.6407 39.7969C55.2071 39.6217 55.7079 39.4132 56.2249 39.124C56.3618 39.0494 56.4986 38.9748 56.6397 38.8979C56.9227 38.7422 57.2051 38.5851 57.4867 38.4266C58.4626 37.8988 59.354 37.4851 60.4707 37.7783C60.837 37.9161 61.1815 38.0746 61.5313 38.25C61.7208 38.3451 61.7208 38.3451 61.9142 38.442C62.3046 38.6433 62.6917 38.8498 63.0782 39.0586C63.3387 39.199 63.5994 39.3389 63.8604 39.4783C64.0304 39.5701 64.0304 39.5701 64.2037 39.6638C64.475 39.817 64.475 39.817 64.7657 39.7969C64.7078 38.6499 64.5694 37.5476 64.3461 36.4222C64.1613 35.4605 64.0544 34.675 64.5413 33.785C65.0503 33.0677 65.7143 32.4752 66.3477 31.8692C66.5652 31.6595 66.7822 31.4494 66.9984 31.2385C67.1928 31.0491 67.3886 30.861 67.5844 30.6731C67.8912 30.4082 67.8912 30.4082 67.8594 30.0938C67.1519 29.9253 66.4508 29.7857 65.7308 29.6818C65.5801 29.6598 65.4294 29.6379 65.2741 29.6153C64.963 29.5708 64.6517 29.5276 64.3402 29.4857C62.6606 29.2363 62.6606 29.2363 62.0598 28.4626C61.506 27.6268 61.0856 26.7026 60.6436 25.8047C60.5663 25.6488 60.489 25.4929 60.4093 25.3323C60.2203 24.951 60.0318 24.5694 59.8438 24.1875C59.751 24.1875 59.6582 24.1875 59.5626 24.1875Z" fill="white"/>
<path d="M14.4395 22.008C15.6004 22.68 16.1074 23.9852 16.6456 25.1545C16.7143 25.3013 16.7831 25.4482 16.854 25.5995C16.9801 25.8687 17.1056 26.1382 17.2305 26.408C17.3228 26.6067 17.4177 26.8042 17.5157 27.0002C17.8479 27.067 18.1693 27.1163 18.505 27.1568C18.7109 27.1846 18.9168 27.2125 19.1227 27.2405C19.4472 27.2832 19.7717 27.3251 20.0965 27.3653C22.6984 27.6924 22.6984 27.6924 23.6329 28.8371C23.9712 29.526 23.977 30.335 23.8438 31.0783C23.4805 31.7035 23.106 32.0942 22.5249 32.5181C20.994 33.6644 20.994 33.6644 20.1339 35.298C20.0587 36.6151 20.4682 37.9078 20.7969 39.1687C20.9404 39.9151 20.8571 40.5034 20.4633 41.1691C19.9998 41.7886 19.4954 42.1004 18.7439 42.252C17.4182 42.3691 16.3838 41.6832 15.2657 41.0627C14.9563 40.8936 14.6458 40.7264 14.334 40.5617C14.2075 40.4919 14.081 40.4222 13.9506 40.3503C13.3673 40.1446 12.9057 40.2847 12.3484 40.5282C12.22 40.5973 12.0916 40.6664 11.9593 40.7375C11.818 40.8126 11.6767 40.8876 11.5311 40.9649C11.3132 41.0829 11.3132 41.0829 11.0909 41.2033C10.8004 41.3589 10.5098 41.5142 10.2191 41.6692C10.0912 41.7382 9.96325 41.8073 9.83145 41.8785C9.07909 42.2613 8.35993 42.2712 7.53129 42.1877C6.85275 41.9595 6.34524 41.5368 5.98442 40.9221C5.62142 39.9577 5.74291 39.1824 5.98133 38.1985C6.48165 36.3814 6.48165 36.3814 6.21754 34.5833C5.62282 33.7641 4.84885 33.1852 4.01567 32.6252C3.29206 32.0726 2.81977 31.5967 2.69566 30.674C2.66211 29.7483 2.72149 29.1305 3.31255 28.4065C3.96416 27.7877 4.62146 27.6509 5.49828 27.6144C7.64973 27.5882 7.64973 27.5882 9.45885 26.6132C10.0593 25.6786 10.3998 24.683 10.7419 23.6281C11.0481 22.837 11.4981 22.3636 12.2247 21.9465C13.0358 21.7088 13.6661 21.6766 14.4395 22.008ZM13.1563 24.1877C13.0671 24.3739 13.0671 24.3739 12.9761 24.5638C12.7532 25.0274 12.5277 25.4896 12.3014 25.9515C12.2042 26.151 12.1076 26.3508 12.0118 26.551C11.8733 26.8399 11.7323 27.1275 11.5907 27.415C11.549 27.5036 11.5072 27.5923 11.4641 27.6836C11.0697 28.4732 10.6065 28.9396 9.78693 29.2851C9.33339 29.3973 8.88871 29.4746 8.42558 29.5364C8.25192 29.5602 8.07826 29.5841 7.89934 29.6086C7.71988 29.6325 7.54041 29.6563 7.35551 29.6809C6.9973 29.729 6.63914 29.7775 6.28105 29.8265C6.12293 29.8475 5.96482 29.8685 5.80191 29.8902C5.42764 29.9332 5.42764 29.9332 5.14067 30.094C5.35711 30.616 5.67339 30.9309 6.08055 31.3178C6.27619 31.5074 6.27619 31.5074 6.47578 31.7007C6.68211 31.8992 6.88894 32.0972 7.09696 32.2939C8.74055 33.8536 8.74055 33.8536 8.82219 35.1295C8.80805 35.2515 8.79391 35.3735 8.77934 35.4992C8.76321 35.6417 8.74708 35.7842 8.73045 35.931C8.62783 36.6106 8.51016 37.2874 8.37745 37.9618C8.25814 38.5856 8.21532 39.1618 8.23442 39.7971C8.80083 39.6219 9.30161 39.4134 9.81865 39.1242C9.95551 39.0496 10.0924 38.975 10.2334 38.8981C10.5165 38.7424 10.7988 38.5853 11.0804 38.4268C12.0563 37.899 12.9477 37.4853 14.0645 37.7785C14.4308 37.9163 14.7752 38.0748 15.125 38.2502C15.3146 38.3452 15.3146 38.3452 15.5079 38.4422C15.8984 38.6435 16.2855 38.85 16.6719 39.0588C16.9324 39.1992 17.1931 39.3391 17.4541 39.4785C17.6241 39.5703 17.6241 39.5703 17.7975 39.664C18.0688 39.8172 18.0688 39.8172 18.3594 39.7971C18.2956 38.6754 18.1438 37.5831 17.9398 36.4796C17.7508 35.4226 17.6941 34.5865 18.2188 33.6096C18.4484 33.3681 18.6818 33.1372 18.9219 32.9065C19.3595 32.4769 19.7955 32.0457 20.2315 31.6145C20.349 31.4993 20.4666 31.3841 20.5877 31.2654C20.6988 31.1553 20.8098 31.0451 20.9242 30.9317C21.0257 30.8316 21.1273 30.7315 21.232 30.6283C21.484 30.3959 21.484 30.3959 21.4532 30.094C21.131 30.0321 20.8087 29.9706 20.4864 29.9094C20.3367 29.8807 20.3367 29.8807 20.184 29.8514C19.6305 29.7468 19.0773 29.6512 18.5198 29.5699C18.408 29.5531 18.2961 29.5363 18.1808 29.519C17.9649 29.487 17.7487 29.4567 17.5322 29.4283C16.7588 29.3118 16.1562 29.1056 15.6514 28.4625C15.1019 27.6238 14.6794 26.7029 14.2374 25.8049C14.16 25.649 14.0827 25.4931 14.0031 25.3325C13.814 24.9512 13.6255 24.5696 13.4375 24.1877C13.3447 24.1877 13.2519 24.1877 13.1563 24.1877Z" fill="white"/>
<path d="M43.9531 43.4532C44.3247 43.8597 44.3774 44.0668 44.3627 44.6173C44.206 45.2566 43.9037 45.5896 43.4466 46.0354C43.3234 46.1605 43.3234 46.1605 43.1978 46.288C42.9268 46.562 42.653 46.8327 42.3788 47.1034C42.1889 47.2935 41.9991 47.4838 41.8095 47.6741C41.412 48.0723 41.013 48.4689 40.6129 48.8645C40.1009 49.3708 39.5925 49.8805 39.0852 50.3914C38.6939 50.7847 38.3009 51.1762 37.9074 51.5672C37.7193 51.7545 37.5317 51.9423 37.3447 52.1306C37.0825 52.3938 36.8182 52.6547 36.5532 52.9151C36.4768 52.9927 36.4003 53.0704 36.3215 53.1504C35.8122 53.6445 35.3893 53.8708 34.6719 54.0001C33.7884 53.7452 33.1793 52.985 32.551 52.3472C32.4308 52.2267 32.3106 52.1063 32.1867 51.9821C31.9337 51.7281 31.6811 51.4736 31.429 51.2187C31.0419 50.8272 30.6533 50.4372 30.2644 50.0475C30.0187 49.8005 29.7731 49.5534 29.5275 49.3062C29.4109 49.189 29.2943 49.0718 29.1742 48.9511C29.0672 48.8426 28.9601 48.7342 28.8498 48.6225C28.7079 48.4792 28.7079 48.4792 28.5632 48.333C28.2453 47.9865 28.2046 47.8255 28.1504 47.3468C28.2031 46.8282 28.2031 46.8282 28.4756 46.4063C29.0018 46.0627 29.2333 46.0784 29.8364 46.1632C30.461 46.3541 30.8418 46.7981 31.2798 47.2638C31.3779 47.3635 31.476 47.4632 31.5771 47.5659C31.8878 47.8829 32.1944 48.2035 32.501 48.5245C32.7117 48.7409 32.9228 48.9571 33.1341 49.173C33.6497 49.701 34.162 50.2321 34.6719 50.7657C35.2016 50.546 35.5326 50.2177 35.9325 49.8115C36.0001 49.7434 36.0676 49.6752 36.1372 49.605C36.2833 49.4573 36.429 49.3094 36.5745 49.1612C36.805 48.9264 37.0364 48.6926 37.2681 48.4591C37.9266 47.7951 38.5832 47.1293 39.2394 46.4631C39.6413 46.0552 40.0442 45.6483 40.4477 45.2421C40.601 45.0873 40.7539 44.9321 40.9063 44.7765C41.1197 44.5587 41.3343 44.3423 41.5493 44.1261C41.6709 44.0027 41.7926 43.8793 41.9179 43.7521C42.6226 43.1464 43.0926 43.0867 43.9531 43.4532Z" fill="white"/>
</svg>
