<svg width="15" height="15" viewBox="0 0 15 15" fill="none" xmlns="http://www.w3.org/2000/svg">
<path d="M7.33203 3.74023C5.33203 3.74023 3.73828 5.36523 3.73828 7.33398C3.73828 9.33398 5.33203 10.9277 7.33203 10.9277C9.30078 10.9277 10.9258 9.33398 10.9258 7.33398C10.9258 5.36523 9.30078 3.74023 7.33203 3.74023ZM7.33203 9.67773C6.05078 9.67773 4.98828 8.64648 4.98828 7.33398C4.98828 6.05273 6.01953 5.02148 7.33203 5.02148C8.61328 5.02148 9.64453 6.05273 9.64453 7.33398C9.64453 8.64648 8.61328 9.67773 7.33203 9.67773ZM11.8945 3.61523C11.8945 3.14648 11.5195 2.77148 11.0508 2.77148C10.582 2.77148 10.207 3.14648 10.207 3.61523C10.207 4.08398 10.582 4.45898 11.0508 4.45898C11.5195 4.45898 11.8945 4.08398 11.8945 3.61523ZM14.2695 4.45898C14.207 3.33398 13.957 2.33398 13.1445 1.52148C12.332 0.708984 11.332 0.458984 10.207 0.396484C9.05078 0.333984 5.58203 0.333984 4.42578 0.396484C3.30078 0.458984 2.33203 0.708984 1.48828 1.52148C0.675781 2.33398 0.425781 3.33398 0.363281 4.45898C0.300781 5.61523 0.300781 9.08398 0.363281 10.2402C0.425781 11.3652 0.675781 12.334 1.48828 13.1777C2.33203 13.9902 3.30078 14.2402 4.42578 14.3027C5.58203 14.3652 9.05078 14.3652 10.207 14.3027C11.332 14.2402 12.332 13.9902 13.1445 13.1777C13.957 12.334 14.207 11.3652 14.2695 10.2402C14.332 9.08398 14.332 5.61523 14.2695 4.45898ZM12.7695 11.459C12.5508 12.084 12.0508 12.5527 11.457 12.8027C10.5195 13.1777 8.33203 13.084 7.33203 13.084C6.30078 13.084 4.11328 13.1777 3.20703 12.8027C2.58203 12.5527 2.11328 12.084 1.86328 11.459C1.48828 10.5527 1.58203 8.36523 1.58203 7.33398C1.58203 6.33398 1.48828 4.14648 1.86328 3.20898C2.11328 2.61523 2.58203 2.14648 3.20703 1.89648C4.11328 1.52148 6.30078 1.61523 7.33203 1.61523C8.33203 1.61523 10.5195 1.52148 11.457 1.89648C12.0508 2.11523 12.5195 2.61523 12.7695 3.20898C13.1445 4.14648 13.0508 6.33398 13.0508 7.33398C13.0508 8.36523 13.1445 10.5527 12.7695 11.459Z" fill="white"/>
</svg>
