<svg width="24" height="24" viewBox="0 0 24 24" fill="none" xmlns="http://www.w3.org/2000/svg">
<path d="M3.75 16.999H20.25C20.6642 16.999 21 16.6632 21 16.249C21 15.8348 20.6642 15.499 20.25 15.499H3.75C3.33579 15.499 3 15.8348 3 16.249C3 16.6632 3.33579 16.999 3.75 16.999Z" fill="#017807"/>
<path d="M6.75 12.749H20.25C20.6642 12.749 21 12.4132 21 11.999C21 11.5848 20.6642 11.249 20.25 11.249H6.75C6.33579 11.249 6 11.5848 6 11.999C6 12.4132 6.33579 12.749 6.75 12.749Z" fill="#017807"/>
<path d="M3.75 8.50098H20.25C20.6642 8.50098 21 8.16519 21 7.75098C21 7.33676 20.6642 7.00098 20.25 7.00098H3.75C3.33579 7.00098 3 7.33676 3 7.75098C3 8.16519 3.33579 8.50098 3.75 8.50098Z" fill="#017807"/>
</svg>
