<svg width="71" height="70" viewBox="0 0 71 70" fill="none" xmlns="http://www.w3.org/2000/svg">
<path d="M35.5 13.714V5.104M35.5 37.6307V46.2407M47.4583 25.6723H56.0683M23.5416 25.6723H14.9316V60.5907C14.9313 61.1561 15.0423 61.7161 15.2586 62.2386C15.4748 62.7611 15.7919 63.2358 16.1917 63.6356C16.5915 64.0355 17.0663 64.3525 17.5887 64.5688C18.1112 64.785 18.6712 64.8961 19.2366 64.8957C19.8021 64.8961 20.3621 64.785 20.8845 64.5688C21.407 64.3525 21.8818 64.0355 22.2816 63.6356C22.6814 63.2358 22.9985 62.7611 23.2147 62.2386C23.4309 61.7161 23.542 61.1561 23.5416 60.5907V42.4053" stroke="white" stroke-width="1.45833" stroke-linecap="round" stroke-linejoin="round"/>
<path d="M35.5 46.2071C46.7194 46.2071 55.8146 37.0258 55.8146 25.7C55.8146 14.3742 46.7194 5.19287 35.5 5.19287C24.2805 5.19287 15.1853 14.3742 15.1853 25.7C15.1853 37.0258 24.2805 46.2071 35.5 46.2071Z" stroke="white" stroke-width="1.45833" stroke-linecap="round" stroke-linejoin="round"/>
<path d="M35.5001 37.6228C42.023 37.6228 47.3109 32.2848 47.3109 25.7001C47.3109 19.1153 42.023 13.7773 35.5001 13.7773C28.9771 13.7773 23.6892 19.1153 23.6892 25.7001C23.6892 32.2848 28.9771 37.6228 35.5001 37.6228Z" stroke="white" stroke-width="1.45833" stroke-linecap="round" stroke-linejoin="round"/>
</svg>
