<svg width="71" height="70" viewBox="0 0 71 70" fill="none" xmlns="http://www.w3.org/2000/svg">
<path d="M23.2019 20.2257C24.9876 15.6438 28.3184 11.83 32.6183 9.44402C36.9182 7.05801 41.9168 6.24978 46.7495 7.15913C51.5823 8.06848 55.9452 10.6382 59.0838 14.4239C62.2225 18.2096 63.9393 22.9731 63.9375 27.8907C63.9374 32.7632 62.25 37.4853 59.162 41.2543C56.0741 45.0234 51.7762 47.6068 46.999 48.5655" stroke="white" stroke-width="1.45833" stroke-linecap="round" stroke-linejoin="round"/>
<path d="M32.2304 62.4602C30.2094 61.7986 28.4106 60.5912 27.0327 58.9713C25.6549 57.3515 24.7516 55.3823 24.4227 53.2813C24.0938 51.1803 24.3521 49.0293 25.1691 47.0659C25.986 45.1025 27.3298 43.4032 29.052 42.1556C30.7741 40.908 32.8077 40.1608 34.9279 39.9964C37.0481 39.8321 39.1725 40.257 41.0663 41.2243C42.9602 42.1916 44.5498 43.6636 45.6595 45.4776C46.7693 47.2917 47.356 49.3772 47.3548 51.5038C47.3529 53.9531 46.5715 56.3382 45.1237 58.3138C43.6759 60.2894 41.6369 61.7529 39.3019 62.4923" stroke="white" stroke-width="1.45833" stroke-linecap="round" stroke-linejoin="round"/>
<path d="M32.2303 57.5953C31.1427 56.9615 30.2408 56.0529 29.6152 54.9605C28.9897 53.8681 28.6624 52.6305 28.6662 51.3717C28.67 50.1128 29.0048 48.8772 29.637 47.7886C30.2692 46.7 31.1765 45.7969 32.268 45.1697C33.3594 44.5426 34.5966 44.2135 35.8555 44.2155C37.1143 44.2175 38.3504 44.5505 39.4399 45.1811C40.5294 45.8117 41.4338 46.7178 42.0626 47.8083C42.6913 48.8989 43.0222 50.1356 43.022 51.3945C43.0217 52.6807 42.6764 53.9432 42.0221 55.0506C41.3677 56.1579 40.4283 57.0694 39.3018 57.6901M35.8193 63.1997V53.5047M18.5978 50.2176C14.9992 49.3296 11.8501 47.1549 9.74489 44.1041C7.63973 41.0534 6.72416 37.3375 7.17099 33.6579C7.61781 29.9784 9.39612 26.5896 12.1703 24.1314C14.9444 21.6731 18.5225 20.3154 22.2291 20.3145H22.2393C24.2318 20.3137 26.2049 20.7054 28.046 21.4672C29.8871 22.2289 31.5601 23.3459 32.9696 24.7543C34.379 26.1626 35.4972 27.8348 36.2604 29.6753C37.0236 31.5158 37.4168 33.4886 37.4176 35.4811V35.4855C37.4184 37.0231 37.1853 38.5519 36.7264 40.0195" stroke="white" stroke-width="1.45833" stroke-linecap="round" stroke-linejoin="round"/>
<path d="M18.598 43.9322C17.0657 43.2817 15.7384 42.2282 14.7569 40.8838C13.7754 39.5393 13.1764 37.954 13.0237 36.2965C12.871 34.6389 13.1702 32.9709 13.8895 31.4697C14.6088 29.9685 15.7214 28.6903 17.1089 27.7707C18.4965 26.8512 20.1073 26.3248 21.7701 26.2473C23.4329 26.1699 25.0856 26.5444 26.5527 27.3311C28.0197 28.1177 29.2462 29.2871 30.1019 30.7149C30.9575 32.1427 31.4104 33.7757 31.4124 35.4403C31.4123 37.2719 30.8665 39.0619 29.8447 40.5819C28.8228 42.1019 27.3713 43.283 25.6753 43.9745M22.1986 50.6872V38.077M30.8261 22.9541C31.9688 20.1694 34.0429 17.8677 36.694 16.4423C39.3452 15.0169 42.409 14.5562 45.3621 15.1388C48.3153 15.7214 50.9745 17.3112 52.8857 19.6367C54.7969 21.9622 55.8414 24.879 55.8409 27.8891C55.8401 30.7973 54.8636 33.6212 53.0678 35.9087C51.272 38.1963 48.7608 39.8153 45.9359 40.5066M42.8384 31.4299V41.7622" stroke="white" stroke-width="1.45833" stroke-linecap="round" stroke-linejoin="round"/>
<path d="M35.8194 53.2527C36.8633 53.2527 37.7094 52.4065 37.7094 51.3627C37.7094 50.3188 36.8633 49.4727 35.8194 49.4727C34.7756 49.4727 33.9294 50.3188 33.9294 51.3627C33.9294 52.4065 34.7756 53.2527 35.8194 53.2527Z" stroke="white" stroke-width="1.45833" stroke-linecap="round" stroke-linejoin="round"/>
<path d="M22.1985 37.9253C23.5564 37.9253 24.6572 36.8245 24.6572 35.4666C24.6572 34.1086 23.5564 33.0078 22.1985 33.0078C20.8406 33.0078 19.7397 34.1086 19.7397 35.4666C19.7397 36.8245 20.8406 37.9253 22.1985 37.9253Z" stroke="white" stroke-width="1.45833" stroke-linecap="round" stroke-linejoin="round"/>
<path d="M42.8428 31.4404C44.8362 31.4404 46.4521 29.8245 46.4521 27.8311C46.4521 25.8377 44.8362 24.2217 42.8428 24.2217C40.8494 24.2217 39.2334 25.8377 39.2334 27.8311C39.2334 29.8245 40.8494 31.4404 42.8428 31.4404Z" stroke="white" stroke-width="1.45833" stroke-linecap="round" stroke-linejoin="round"/>
</svg>
