<svg width="15" height="15" viewBox="0 0 15 15" fill="none" xmlns="http://www.w3.org/2000/svg">
<path d="M13.332 0.333984C13.8633 0.333984 14.332 0.802734 14.332 1.36523V13.334C14.332 13.8965 13.8633 14.334 13.332 14.334H1.30078C0.769531 14.334 0.332031 13.8965 0.332031 13.334V1.36523C0.332031 0.802734 0.769531 0.333984 1.30078 0.333984H13.332ZM4.55078 12.334V5.67773H2.48828V12.334H4.55078ZM3.51953 4.74023C4.17578 4.74023 4.70703 4.20898 4.70703 3.55273C4.70703 2.89648 4.17578 2.33398 3.51953 2.33398C2.83203 2.33398 2.30078 2.89648 2.30078 3.55273C2.30078 4.20898 2.83203 4.74023 3.51953 4.74023ZM12.332 12.334V8.67773C12.332 6.89648 11.9258 5.49023 9.83203 5.49023C8.83203 5.49023 8.14453 6.05273 7.86328 6.58398H7.83203V5.67773H5.86328V12.334H7.92578V9.05273C7.92578 8.17773 8.08203 7.33398 9.17578 7.33398C10.2383 7.33398 10.2383 8.33398 10.2383 9.08398V12.334H12.332Z" fill="white"/>
</svg>
