<svg width="65" height="64" viewBox="0 0 65 64" fill="none" xmlns="http://www.w3.org/2000/svg">
<path d="M38.0045 24.0169C39.9853 25.5781 41.3178 27.6248 41.7501 30.1248C42.0098 34.1293 41.1753 38.0412 38.4884 41.1126C38.4097 41.1991 38.3311 41.2856 38.2501 41.3748C38.5841 41.4262 38.914 41.4665 39.2501 41.4998C39.4178 41.5191 39.4178 41.5191 39.589 41.5389C40.5779 41.6025 41.1746 41.3174 42.0304 40.8445C42.7954 40.454 43.658 40.3646 44.5001 40.2498C44.3468 39.9384 44.1873 39.6316 44.0245 39.325C42.8399 37.0665 42.0938 34.4024 42.8282 31.867C43.4884 30.0743 44.5074 28.7345 46.2076 27.8089C48.1241 26.9638 50.0318 26.9237 52.0001 27.6248C53.6477 28.3609 54.8305 29.5778 55.5274 31.2376C56.392 33.5379 56.0878 36.0015 55.1749 38.2478C54.9541 38.724 54.6991 39.1677 54.4166 39.6097C54.2602 39.8587 54.1269 40.1097 54.0001 40.3748C54.1522 40.3645 54.3043 40.3542 54.461 40.3435C56.3374 40.3465 57.841 41.3626 59.1251 42.6248C59.1989 42.697 59.2727 42.7692 59.3487 42.8435C60.3122 43.8713 60.7795 45.3151 60.7844 46.7018C60.7854 46.8379 60.7854 46.8379 60.7864 46.9768C60.7881 47.274 60.788 47.5712 60.7877 47.8684C60.7882 48.0762 60.7887 48.2839 60.7893 48.4917C60.7902 48.9257 60.7902 49.3597 60.7895 49.7938C60.7888 50.3499 60.7909 50.9059 60.7938 51.462C60.7957 51.8904 60.7958 52.3188 60.7954 52.7472C60.7955 52.9523 60.7961 53.1574 60.7974 53.3625C60.7989 53.6488 60.7981 53.935 60.7966 54.2213C60.7967 54.3841 60.7968 54.5469 60.7969 54.7146C60.7473 55.1492 60.6863 55.3236 60.3751 55.6248C59.8896 55.7866 59.4306 55.7662 58.9248 55.764C58.815 55.764 58.7052 55.764 58.5921 55.764C58.2289 55.764 57.8657 55.763 57.5025 55.762C57.2508 55.7618 56.9991 55.7616 56.7475 55.7615C56.0847 55.761 55.422 55.7598 54.7593 55.7584C54.0831 55.7571 53.407 55.7565 52.7308 55.7559C51.4039 55.7546 50.077 55.7524 48.7501 55.7498C48.7512 55.8332 48.7523 55.9167 48.7535 56.0027C48.7645 56.8705 48.7721 57.7383 48.7776 58.6062C48.7801 58.9302 48.7835 59.2542 48.7878 59.5782C48.7939 60.0436 48.7967 60.5089 48.7989 60.9744C48.8015 61.1195 48.8041 61.2645 48.8067 61.414C48.8068 61.5491 48.8068 61.6842 48.8069 61.8234C48.808 61.9422 48.8091 62.061 48.8102 62.1834C48.7267 62.6229 48.6148 62.7366 48.2501 62.9998C47.8333 63.0758 47.4201 63.0672 46.9975 63.0633C46.8688 63.0641 46.74 63.0648 46.6074 63.0656C46.1748 63.0676 45.7423 63.0661 45.3097 63.0645C45.0001 63.0652 44.6905 63.0661 44.3808 63.0671C43.6264 63.0692 42.872 63.0689 42.1176 63.0674C41.5045 63.0663 40.8915 63.0662 40.2784 63.0667C40.1912 63.0668 40.104 63.0668 40.0141 63.0669C39.8369 63.0671 39.6598 63.0673 39.4826 63.0674C37.8209 63.0688 36.1591 63.0672 34.4974 63.0645C33.0711 63.0623 31.6449 63.0627 30.2186 63.065C28.5628 63.0676 26.9071 63.0687 25.2513 63.0672C25.0748 63.067 24.8983 63.0669 24.7218 63.0667C24.6349 63.0666 24.5481 63.0665 24.4586 63.0665C23.8462 63.066 23.2338 63.0668 22.6213 63.0679C21.7973 63.0695 20.9732 63.0684 20.1491 63.0655C19.8462 63.0648 19.5432 63.065 19.2403 63.0661C18.8277 63.0675 18.4153 63.0658 18.0027 63.0633C17.8216 63.065 17.8216 63.065 17.6368 63.0667C16.8295 63.0571 16.8295 63.0571 16.4256 62.7656C16.2032 62.4287 16.1896 62.2257 16.1933 61.8234C16.1934 61.6883 16.1934 61.5532 16.1934 61.414C16.196 61.2689 16.1986 61.1239 16.2013 60.9744C16.202 60.8253 16.2027 60.6762 16.2034 60.5225C16.2062 60.0462 16.2125 59.5699 16.2188 59.0935C16.2213 58.7706 16.2236 58.4477 16.2257 58.1248C16.2312 57.3331 16.2396 56.5414 16.2501 55.7498C16.1105 55.7506 15.971 55.7515 15.8272 55.7523C14.5121 55.7599 13.1971 55.7655 11.882 55.7692C11.2059 55.7712 10.5298 55.7738 9.85375 55.7781C9.20131 55.7822 8.54889 55.7844 7.89643 55.7854C7.64749 55.7861 7.39856 55.7874 7.14962 55.7894C6.80098 55.7922 6.45241 55.7925 6.10375 55.7924C5.94933 55.7944 5.94933 55.7944 5.79179 55.7964C5.2169 55.7933 4.84245 55.7476 4.37509 55.3748C4.19029 55.0052 4.23111 54.6721 4.22796 54.2596C4.22714 54.1706 4.22632 54.0815 4.22547 53.9897C4.223 53.6939 4.22155 53.3981 4.2203 53.1023C4.21979 53.001 4.21928 52.8997 4.21876 52.7953C4.21615 52.2578 4.21436 51.7204 4.21319 51.1829C4.21182 50.6309 4.20752 50.079 4.20254 49.5271C4.19925 49.1002 4.19823 48.6734 4.19778 48.2466C4.19718 48.0434 4.19574 47.8402 4.1934 47.637C4.17101 45.558 4.63079 43.88 6.09384 42.3435C7.51133 40.9897 9.08141 40.4599 11.0001 40.2498C10.9442 40.1679 10.8883 40.0861 10.8307 40.0017C9.32805 37.7334 8.69682 35.1467 9.0577 32.4432C9.4697 30.5916 10.6082 29.0925 12.1832 28.0579C13.8957 27.0684 15.7279 26.8986 17.6264 27.3867C19.3654 27.8818 20.7086 28.9838 21.5899 30.5555C22.6827 32.7344 22.6125 35.0819 21.8751 37.3748C21.5718 38.2592 21.1923 39.0255 20.6422 39.782C20.4773 39.9914 20.4773 39.9914 20.5001 40.2498C20.6862 40.2752 20.6862 40.2752 20.8761 40.3011C21.8083 40.4438 22.5763 40.6271 23.4063 41.0857C24.2243 41.5283 24.835 41.6053 25.7501 41.4998C25.8542 41.4895 25.9583 41.4792 26.0655 41.4685C26.2944 41.4428 26.5224 41.4098 26.7501 41.3748C26.6729 41.2912 26.5957 41.2075 26.5162 41.1214C23.8971 38.1515 23.0589 34.3666 23.2242 30.4906C23.3875 28.1819 24.6317 26.17 26.2735 24.6014C29.5686 21.796 34.4575 21.5198 38.0045 24.0169ZM27.1251 26.8748C26.1758 28.0527 25.3751 29.4482 25.3751 30.9998C25.9102 30.8065 26.3839 30.5361 26.8682 30.242C26.9497 30.193 27.0312 30.144 27.1151 30.0935C27.3739 29.9377 27.6323 29.7812 27.8907 29.6248C28.0653 29.5196 28.24 29.4145 28.4146 29.3094C29.278 28.7925 29.278 28.7925 30.1251 28.2498C30.5929 28.1635 31.0527 28.155 31.487 28.3636C31.7157 28.5235 31.9278 28.6944 32.1407 28.8748C34.1975 30.4872 36.9607 31.7498 39.6251 31.7498C39.7674 30.0345 39.1676 28.5083 38.1207 27.1761C36.9563 25.8104 35.3248 24.6944 33.5001 24.4998C31.0503 24.3561 28.8206 25.0186 27.1251 26.8748ZM12.0782 30.9529C11.1455 32.2179 10.9414 33.5962 11.1623 35.1335C11.4663 36.9283 12.1378 38.611 13.6251 39.7498C14.5461 40.3243 15.5646 40.3909 16.6251 40.2498C18.0046 39.7974 18.8476 38.8887 19.5001 37.6248C20.1883 35.9703 20.634 34.01 20.0548 32.2576C19.4906 30.9438 18.5702 30.1088 17.2813 29.5232C15.4003 28.8359 13.3831 29.4475 12.0782 30.9529ZM45.7501 30.9197C44.7966 32.199 44.5948 33.435 44.7501 34.9998C44.9793 36.5539 45.5251 38.3194 46.7501 39.3748C47.8877 40.1581 48.7418 40.3507 50.1251 40.2498C51.1543 40.0394 51.875 39.4512 52.5001 38.6248C53.6245 36.8631 54.1316 34.8726 53.8253 32.7854C53.5571 31.6831 52.8603 30.7049 51.9298 30.0623C49.8377 28.8128 47.3911 28.9838 45.7501 30.9197ZM29.6212 30.9339C29.5473 30.979 29.4734 31.0241 29.3973 31.0705C29.1602 31.2154 28.9239 31.3615 28.6876 31.5076C28.5324 31.6026 28.3771 31.6976 28.2218 31.7925C27.3083 32.3518 26.4016 32.9213 25.5001 33.4998C25.6152 35.648 26.5759 37.8996 28.0001 39.4998C28.0679 39.5778 28.1358 39.6558 28.2057 39.7361C29.282 40.8957 30.6223 41.4914 32.1891 41.5501C33.838 41.5745 35.0859 41.1796 36.3751 40.1248C36.4518 40.0623 36.5285 39.9998 36.6075 39.9353C38.3062 38.3925 39.1147 36.069 39.5001 33.8748C39.4152 33.8591 39.3304 33.8435 39.243 33.8273C36.3291 33.2835 33.7664 32.5367 31.3035 30.849C30.5915 30.367 30.3292 30.4991 29.6212 30.9339ZM7.25009 44.2498C6.65295 45.0261 6.3426 45.7953 6.34671 46.7849C6.34674 46.9396 6.34677 47.0943 6.3468 47.2537C6.34808 47.4145 6.34935 47.5753 6.35067 47.741C6.35092 47.8901 6.35118 48.0393 6.35144 48.1929C6.35274 48.7484 6.35623 49.3038 6.35946 49.8592C6.36462 51.1018 6.36977 52.3445 6.37509 53.6248C9.63384 53.6248 12.8926 53.6248 16.2501 53.6248C16.2913 52.2223 16.3326 50.8198 16.3751 49.3748C17.1665 46.6048 18.3169 44.4388 20.8985 42.992C21.0566 42.9098 21.2152 42.8284 21.3751 42.7498C21.3132 42.626 21.3132 42.626 21.2501 42.4998C20.6886 42.3665 20.1398 42.3583 19.5647 42.3566C19.4741 42.3562 19.3836 42.3558 19.2903 42.3554C18.9925 42.3542 18.6948 42.3539 18.3971 42.3538C18.1884 42.3534 17.9798 42.353 17.7712 42.3525C17.3342 42.3518 16.8972 42.3516 16.4602 42.3516C15.9035 42.3516 15.3468 42.3499 14.7901 42.3478C14.3591 42.3464 13.9281 42.3461 13.4971 42.3462C13.292 42.3461 13.087 42.3455 12.8819 42.3445C10.6553 42.335 8.84582 42.5437 7.25009 44.2498ZM43.6251 42.6248C43.9796 42.8949 44.3422 43.1482 44.711 43.3982C46.9133 44.9515 47.9702 46.7551 48.6251 49.3748C48.6663 50.7773 48.7076 52.1798 48.7501 53.6248C52.0088 53.6248 55.2676 53.6248 58.6251 53.6248C58.6354 52.3899 58.6457 51.1549 58.6563 49.8826C58.6609 49.4948 58.6654 49.1069 58.6701 48.7073C58.6716 48.3974 58.6729 48.0875 58.6739 47.7776C58.6778 47.5393 58.6778 47.5393 58.6817 47.2962C58.6822 45.9058 58.3168 44.9048 57.3751 43.8748C56.1875 42.7382 54.786 42.3556 53.1703 42.3566C53.0777 42.3562 52.9851 42.3558 52.8897 42.3554C52.5855 42.3542 52.2813 42.3539 51.9771 42.3538C51.7645 42.3534 51.5519 42.353 51.3393 42.3525C50.8943 42.3518 50.4493 42.3516 50.0043 42.3516C49.4355 42.3516 48.8667 42.3499 48.2979 42.3478C47.859 42.3464 47.4201 42.3461 46.9812 42.3462C46.7715 42.3461 46.5618 42.3455 46.3522 42.3445C46.0585 42.3433 45.7648 42.3437 45.4711 42.3444C45.3426 42.3434 45.3425 42.3434 45.2114 42.3423C44.6349 42.346 44.1676 42.4476 43.6251 42.6248ZM20.0216 46.2937C18.9433 47.6086 18.3099 49.1029 18.3325 50.8109C18.3325 50.922 18.3324 51.0331 18.3323 51.1476C18.3326 51.5102 18.3355 51.8726 18.3385 52.2351C18.3392 52.4884 18.3397 52.7416 18.3401 52.9949C18.3415 53.6578 18.3452 54.3207 18.3493 54.9836C18.3532 55.6615 18.3549 56.3395 18.3568 57.0174C18.3608 58.3449 18.3674 59.6723 18.3751 60.9998C19.9838 60.9998 21.5926 60.9998 23.2501 60.9998C23.2519 60.5378 23.2536 60.0759 23.2555 59.5999C23.2593 59.1523 23.2642 58.7046 23.2692 58.257C23.2721 57.946 23.2739 57.635 23.2745 57.324C23.2757 56.8769 23.2808 56.4299 23.2867 55.9827C23.286 55.7743 23.286 55.7743 23.2852 55.5616C23.3055 54.4854 23.3055 54.4854 23.6762 54.0975C24.0001 53.8748 24.0001 53.8748 24.2711 53.8279C24.5166 53.8735 24.7586 53.9364 25.0001 53.9998C26.2962 55.944 25.331 58.6635 25.3751 60.9998C30.0776 60.9998 34.7801 60.9998 39.6251 60.9998C39.6663 58.8135 39.7076 56.6273 39.7501 54.3748C40.0001 53.9998 40.0001 53.9998 40.4767 53.8748C40.7291 53.8279 40.7291 53.8279 41.0001 53.8748C41.4032 54.152 41.5904 54.3208 41.6847 54.8078C41.7096 55.2005 41.7149 55.5892 41.7135 55.9827C41.7154 56.1261 41.7172 56.2695 41.7192 56.4172C41.7246 56.8745 41.7257 57.3316 41.7267 57.7889C41.7295 58.0992 41.7327 58.4095 41.7362 58.7198C41.7446 59.4798 41.7472 60.2396 41.7501 60.9998C43.3588 60.9998 44.9676 60.9998 46.6251 60.9998C46.6396 59.0147 46.6396 59.0147 46.6495 57.0296C46.6525 56.219 46.656 55.4084 46.6628 54.5979C46.6683 53.9438 46.6712 53.2898 46.6725 52.6357C46.6734 52.3871 46.6752 52.1385 46.678 51.89C46.692 50.5525 46.6919 49.3674 46.1251 48.1248C46.0618 47.9841 45.9984 47.8435 45.9332 47.6985C44.8435 45.8062 43.2839 44.5682 41.2032 43.9451C40.1439 43.6632 39.1205 43.6059 38.0311 43.6047C37.9 43.604 37.769 43.6034 37.634 43.6028C37.2026 43.601 36.7713 43.6001 36.3399 43.5994C36.1916 43.599 36.0434 43.5987 35.8906 43.5983C35.1053 43.5965 34.3201 43.5953 33.5349 43.5948C32.7285 43.5941 31.9222 43.5911 31.1159 43.5875C30.4917 43.5852 29.8676 43.5845 29.2434 43.5843C28.9464 43.584 28.6494 43.583 28.3524 43.5813C25.1641 43.5648 22.3507 43.8738 20.0216 46.2937Z" fill="white"/>
<path d="M33.0001 0.999776C33.4306 1.36959 33.6733 1.77139 33.9371 2.27028C33.9765 2.3443 34.016 2.41831 34.0566 2.49457C34.1819 2.73024 34.3058 2.96656 34.4298 3.2029C34.5125 3.35871 34.5952 3.51447 34.6781 3.67019C34.8325 3.96139 34.9864 4.25287 35.14 4.54452C35.1779 4.61459 35.2158 4.68467 35.2549 4.75688C35.3751 4.99978 35.3751 4.99978 35.4977 5.32089C35.7524 5.9659 35.7524 5.9659 36.2691 6.3935C36.6047 6.48222 36.9293 6.53262 37.274 6.57302C37.3968 6.59226 37.5196 6.6115 37.6461 6.63133C38.037 6.69175 38.4284 6.74456 38.8204 6.79665C39.2126 6.85264 39.6045 6.91022 39.9961 6.97001C40.2393 7.00674 40.4829 7.04108 40.7269 7.07272C41.5464 7.19094 41.5464 7.19094 41.9444 7.48836C42.2237 7.89242 42.2748 8.13143 42.2501 8.62478C42.0084 9.00594 41.6926 9.30617 41.3751 9.62478C41.2104 9.81171 41.0464 9.99925 40.8829 10.1873C40.519 10.604 40.1475 10.9673 39.7247 11.3245C38.7704 12.0954 38.7704 12.0954 38.1788 13.1303C38.1473 13.6757 38.2817 14.1827 38.4256 14.7052C38.5631 15.2487 38.6279 15.8042 38.7032 16.3592C38.7272 16.5269 38.7272 16.5269 38.7517 16.6981C38.995 18.4219 38.995 18.4219 38.8751 18.9998C38.6173 19.3357 38.6173 19.3357 38.2501 19.4998C37.4479 19.5897 36.9769 19.3418 36.3033 18.9583C36.0967 18.847 35.8899 18.7359 35.683 18.625C35.3604 18.4498 35.0391 18.2732 34.7196 18.0923C33.5315 17.3692 33.5315 17.3692 32.2028 17.1603C31.8079 17.3197 31.481 17.5163 31.1251 17.7498C30.9079 17.8614 30.6907 17.9729 30.4717 18.0809C30.2437 18.1937 30.0176 18.3096 29.7919 18.4268C29.7169 18.4657 29.6419 18.5045 29.5647 18.5446C29.4109 18.6248 29.2574 18.7054 29.1041 18.7864C28.878 18.9055 28.6509 19.0224 28.4234 19.1389C28.2909 19.2083 28.1584 19.2776 28.0219 19.3491C27.5663 19.5221 27.2338 19.5436 26.7501 19.4998C26.3829 19.2654 26.3829 19.2654 26.1251 18.8748C25.9396 17.6755 26.3009 16.3557 26.4925 15.1691C26.5378 14.8867 26.5817 14.6041 26.6256 14.3216C26.6399 14.2357 26.6542 14.1499 26.669 14.0615C26.7417 13.5913 26.7881 13.2011 26.6251 12.7498C26.3835 12.4415 26.3835 12.4415 26.0694 12.1497C25.9554 12.0378 25.8413 11.9259 25.7237 11.8106C25.6024 11.6939 25.481 11.5773 25.3595 11.4607C23.7774 9.92316 23.7774 9.92316 23.1251 9.12478C23.0553 9.04207 22.9855 8.95935 22.9136 8.87414C22.7501 8.62478 22.7501 8.62478 22.7579 8.18728C22.8916 7.68819 22.9605 7.55012 23.3751 7.24978C23.7735 7.16387 24.1735 7.14931 24.5797 7.12722C27.2296 7.01334 27.2296 7.01334 29.4628 5.81588C30.1911 4.85895 30.595 3.70989 30.9659 2.57741C31.331 1.53926 31.775 0.747822 33.0001 0.999776ZM32.3751 4.37478C32.3209 4.48328 32.2667 4.59178 32.2109 4.70357C32.0093 5.10642 31.8057 5.50825 31.6015 5.90981C31.5134 6.08365 31.4259 6.25777 31.3389 6.43215C31.2137 6.68296 31.0866 6.93274 30.9591 7.18239C30.9207 7.2604 30.8822 7.3384 30.8426 7.41876C30.6855 7.72273 30.5519 7.96172 30.2735 8.16634C29.9073 8.2781 29.5454 8.34247 29.1671 8.40212C29.0063 8.42838 28.8455 8.45465 28.6798 8.48171C28.425 8.52231 28.1702 8.56256 27.9153 8.60262C27.6684 8.64172 27.4216 8.68206 27.1749 8.72243C27.0275 8.74572 26.8802 8.769 26.7283 8.79299C26.3604 8.84534 26.3604 8.84534 26.1251 9.12478C26.2232 9.22146 26.3214 9.31814 26.4225 9.41775C27.0791 10.0677 27.7279 10.7159 28.3248 11.4221C28.4951 11.6303 28.4951 11.6303 28.7076 11.7967C29.0949 12.2664 28.9273 13.0473 28.8751 13.6248C28.8037 14.1766 28.7179 14.726 28.6226 15.2742C28.5965 15.4286 28.5965 15.4286 28.5699 15.5862C28.5536 15.678 28.5372 15.7698 28.5203 15.8643C28.4984 16.1466 28.5419 16.3557 28.6251 16.6248C28.7272 16.5718 28.8293 16.5188 28.9345 16.4641C29.3155 16.2672 29.6971 16.0717 30.0793 15.8771C30.2442 15.7928 30.4088 15.7079 30.5732 15.6225C30.8102 15.4994 31.0481 15.3783 31.2862 15.2576C31.4289 15.1843 31.5716 15.111 31.7187 15.0354C32.3193 14.798 32.6809 14.798 33.2815 15.0354C33.4242 15.1087 33.5669 15.1821 33.714 15.2576C33.7906 15.2964 33.8672 15.3353 33.9462 15.3753C34.1889 15.4987 34.4304 15.6242 34.672 15.7498C34.8371 15.8342 35.0023 15.9185 35.1676 16.0027C35.5709 16.2085 35.9733 16.4161 36.3751 16.6248C36.4964 16.2358 36.4973 15.9548 36.4303 15.5545C36.4128 15.4453 36.3954 15.3361 36.3774 15.2236C36.3492 15.0509 36.3492 15.0509 36.3204 14.8748C36.2688 14.5217 36.2189 14.1683 36.1694 13.8149C36.1329 13.5555 36.0946 13.2964 36.0558 13.0374C36.0058 12.458 36.019 12.1415 36.3741 11.6673C36.6951 11.3439 37.0307 11.0478 37.3751 10.7498C37.5376 10.5761 37.697 10.3992 37.8517 10.2185C37.9197 10.1392 37.9877 10.06 38.0577 9.97829C38.1212 9.90288 38.1847 9.82747 38.2501 9.74978C38.3136 9.67437 38.3771 9.59896 38.4425 9.52126C38.5874 9.34802 38.7314 9.174 38.8751 8.99978C37.8428 8.74261 36.8139 8.54185 35.7619 8.3861C34.8599 8.24633 34.8599 8.24633 34.5001 7.99978C34.3278 7.72792 34.1826 7.46947 34.0411 7.18239C34.0002 7.10229 33.9593 7.02218 33.9172 6.93965C33.7872 6.68433 33.6592 6.42803 33.5314 6.17165C33.4434 5.99808 33.3554 5.82458 33.2672 5.65114C33.0516 5.22646 32.8379 4.80088 32.6251 4.37478C32.5426 4.37478 32.4601 4.37478 32.3751 4.37478Z" fill="white"/>
<path d="M52.7544 5.63929C53.2843 5.87841 53.4868 6.38156 53.75 6.87513C53.8008 6.96812 53.8515 7.06111 53.9038 7.15693C54.1914 7.68414 54.4752 8.2133 54.7529 8.74573C54.8005 8.83676 54.8481 8.92779 54.8972 9.02158C55 9.25013 55 9.25013 55 9.50013C55.1525 9.52067 55.1525 9.52067 55.3081 9.54163C55.6992 9.59574 56.0899 9.65189 56.4803 9.71003C56.664 9.73733 56.8476 9.76421 57.0314 9.79072C57.3156 9.83238 57.5992 9.87687 57.8828 9.922C57.972 9.9347 58.0612 9.9474 58.153 9.96048C58.7297 10.0558 59.0892 10.2066 59.5 10.6251C59.6328 11.047 59.6328 11.047 59.625 11.5001C59.161 12.3696 58.3709 12.9937 57.6504 13.6491C57.0421 14.2187 57.0421 14.2187 56.7949 14.9923C56.8156 15.1624 56.8427 15.3318 56.875 15.5001C56.8945 15.6488 56.8945 15.6488 56.9144 15.8005C56.9577 16.1235 57.009 16.4443 57.0625 16.7658C57.3545 18.5363 57.3545 18.5363 57.0781 19.1017C56.875 19.3751 56.875 19.3751 56.625 19.5001C55.9518 19.5539 55.5805 19.458 55.0098 19.1051C53.5909 18.2099 53.5909 18.2099 52.002 17.9005C51.3463 18.0918 50.8002 18.4312 50.249 18.8275C49.5863 19.2869 48.9477 19.6398 48.125 19.5001C47.7578 19.2658 47.7578 19.2658 47.5 18.8751C47.4101 18.2097 47.5014 17.5571 47.6348 16.9039C47.9855 15.4659 47.9855 15.4659 47.6055 14.1085C47.3002 13.7498 46.9528 13.4513 46.581 13.1635C46.2709 12.9176 46.0017 12.6353 45.7266 12.3517C45.6371 12.2648 45.5477 12.178 45.4556 12.0885C45.1606 11.7823 45.127 11.6432 45.0781 11.2111C45.125 10.7501 45.125 10.7501 45.3882 10.4201C45.8068 10.0788 46.0557 10.017 46.5864 9.94495C46.7457 9.92102 46.905 9.89709 47.0691 9.87244C47.2361 9.84965 47.4032 9.82711 47.5703 9.80481C47.8991 9.7602 48.227 9.71272 48.5552 9.6637C48.7004 9.64411 48.8457 9.62453 48.9954 9.60434C49.5567 9.45024 49.7698 9.17837 50.0595 8.68738C50.1158 8.57274 50.172 8.45809 50.23 8.33997C50.3248 8.1512 50.3248 8.1512 50.4216 7.95862C50.5519 7.69482 50.6818 7.43082 50.8113 7.16663C50.8747 7.04079 50.9381 6.91494 51.0034 6.78528C51.0598 6.67064 51.1162 6.55599 51.1743 6.43787C51.5704 5.82061 51.9952 5.48519 52.7544 5.63929ZM52.25 9.12513C52.1325 9.33734 52.1325 9.33734 52.0127 9.55384C51.9095 9.73907 51.8063 9.92429 51.7031 10.1095C51.6516 10.2028 51.6 10.2961 51.5469 10.3922C51.4719 10.5264 51.4719 10.5264 51.3955 10.6632C51.3268 10.7869 51.3268 10.7869 51.2567 10.9132C51.078 11.2009 50.9469 11.3544 50.6171 11.4494C50.5137 11.469 50.4103 11.4887 50.3037 11.5089C50.1917 11.5307 50.0797 11.5524 49.9644 11.5748C49.8472 11.5966 49.7301 11.6183 49.6094 11.6408C49.4913 11.6635 49.3732 11.6862 49.2515 11.7096C48.9595 11.7656 48.6673 11.8208 48.375 11.8751C48.848 12.4306 49.328 12.9771 49.8228 13.5133C50.137 13.9331 50.1409 14.3101 50.0825 14.8185C50.0708 14.924 50.0592 15.0296 50.0471 15.1383C50.0277 15.3019 50.0277 15.3019 50.0078 15.4689C49.9953 15.5799 49.9828 15.6909 49.97 15.8053C49.9391 16.0787 49.9074 16.3519 49.875 16.6251C50.0168 16.5515 50.1586 16.4779 50.3047 16.402C50.4947 16.307 50.6848 16.2121 50.875 16.1173C50.968 16.0686 51.0609 16.0198 51.1567 15.9696C51.8434 15.6323 52.2524 15.5674 53 15.7501C53.417 15.9264 53.417 15.9264 53.7969 16.1329C54.25 16.405 54.25 16.405 54.75 16.5001C54.7416 16.4258 54.7333 16.3516 54.7246 16.275C54.5031 14.1506 54.5031 14.1506 54.7852 13.5133C55.0086 13.2727 55.2427 13.0785 55.5 12.8751C55.6484 12.6917 55.7919 12.5042 55.9297 12.3126C56.0364 12.1667 56.1431 12.0209 56.25 11.8751C56.1807 11.8626 56.1113 11.8501 56.0399 11.8372C55.7241 11.7789 55.409 11.7177 55.0938 11.6564C54.9301 11.6269 54.9301 11.6269 54.7632 11.5968C53.7438 11.3945 53.7438 11.3945 53.375 10.8751C53.2162 10.6008 53.0655 10.3217 52.9219 10.0392C52.6831 9.4885 52.6831 9.4885 52.25 9.12513Z" fill="white"/>
<path d="M13.2499 5.75014C13.6172 6.15156 13.8711 6.57149 14.1137 7.0563C14.2102 7.24615 14.2102 7.24615 14.3088 7.43984C14.4421 7.70537 14.5752 7.97099 14.7082 8.23672C14.7724 8.3628 14.8366 8.48889 14.9027 8.6188C14.9604 8.73396 15.0181 8.84912 15.0776 8.96776C15.2432 9.28368 15.2432 9.28368 15.6249 9.50014C15.8924 9.55565 16.1621 9.60058 16.4325 9.6393C16.5921 9.66388 16.7516 9.68845 16.9159 9.71377C17.1687 9.75186 17.4215 9.78916 17.6746 9.8247C17.9198 9.85955 18.1644 9.89783 18.4091 9.93618C18.5553 9.9575 18.7015 9.97882 18.8521 10.0008C19.3394 10.1531 19.555 10.3571 19.8749 10.7501C19.9687 11.1642 19.9687 11.1642 19.8749 11.6251C19.6293 12.0044 19.3205 12.3084 18.9999 12.6251C18.8236 12.8017 18.6473 12.9782 18.471 13.1548C18.2963 13.3288 18.1201 13.5012 17.9438 13.6735C17.8385 13.7813 17.7333 13.8891 17.6249 14.0001C17.5255 14.087 17.4261 14.1738 17.3236 14.2633C16.9968 14.8584 17.1722 15.4282 17.2812 16.0783C17.6023 18.1307 17.6023 18.1307 17.4999 19.0001C17.2421 19.3361 17.2421 19.3361 16.8749 19.5001C16.2074 19.5562 15.8463 19.4664 15.287 19.1051C13.9286 18.2076 13.9286 18.2076 12.3849 17.9005C11.7314 18.0939 11.1891 18.4368 10.6362 18.8275C9.94562 19.2839 9.21305 19.6316 8.37491 19.5001C7.98626 19.2445 7.89284 19.0779 7.78849 18.6251C7.7125 18.012 7.82861 17.4251 7.9296 16.8205C7.98462 16.4838 8.03762 16.1478 8.08292 15.8097C8.12491 15.5001 8.12491 15.5001 8.18058 15.2397C8.22075 14.9506 8.21635 14.7792 8.12491 14.5001C7.76065 14.0247 7.33163 13.6302 6.89054 13.2267C6.65829 13.0096 6.42681 12.7917 6.1962 12.5729C6.09277 12.4778 5.98935 12.3827 5.88279 12.2847C5.50868 11.8719 5.37138 11.5484 5.38272 10.9923C5.53372 10.5192 5.71518 10.3995 6.12491 10.1251C6.5112 10.013 6.5112 10.013 6.93839 9.94399C7.1697 9.90496 7.1697 9.90496 7.40567 9.86513C7.56568 9.84008 7.72568 9.81502 7.89054 9.78921C8.2086 9.73683 8.52664 9.68427 8.84464 9.63149C8.98533 9.60914 9.12602 9.5868 9.27097 9.56377C9.63289 9.50744 9.63289 9.50744 9.99991 9.37514C10.2064 9.04644 10.2064 9.04644 10.3974 8.63784C10.473 8.48614 10.5487 8.33444 10.6244 8.18276C10.7421 7.94329 10.8592 7.70355 10.9757 7.46352C11.0887 7.23181 11.2039 7.00122 11.3192 6.77065C11.4207 6.5627 11.4207 6.5627 11.5243 6.35055C11.9777 5.64648 12.457 5.51949 13.2499 5.75014ZM12.6249 9.12514C12.5027 9.31205 12.3866 9.503 12.2733 9.69546C12.2045 9.80922 12.1357 9.92298 12.0649 10.0402C11.8756 10.3572 11.8756 10.3572 11.767 10.6398C11.6718 10.8673 11.6718 10.8673 11.3749 11.2501C10.8864 11.4426 10.3905 11.5337 9.87491 11.6251C9.65595 11.6737 9.43717 11.723 9.21866 11.7736C9.06398 11.8071 8.90929 11.8406 8.74991 11.8751C9.13595 12.4068 9.52536 12.9041 9.98429 13.3751C10.3008 13.7356 10.3704 13.8422 10.4374 14.3361C10.4201 14.5161 10.3986 14.6958 10.3749 14.8751C10.3534 15.1668 10.3326 15.4584 10.3124 15.7501C10.292 16.0002 10.2713 16.2502 10.2499 16.5001C10.8753 16.3045 11.4342 16.041 12.015 15.7409C12.8273 15.4797 13.5219 15.8385 14.2421 16.1955C14.3276 16.2366 14.4131 16.2778 14.5011 16.3202C14.7096 16.4208 14.9173 16.5228 15.1249 16.6251C15.1154 16.5533 15.1058 16.4815 15.096 16.4076C15.0538 16.0793 15.0151 15.7507 14.9765 15.422C14.9539 15.2526 14.9539 15.2526 14.9308 15.0797C14.8536 14.3969 14.8394 13.9606 15.2499 13.3751C15.474 13.1155 15.7123 12.8768 15.9608 12.6408C16.0247 12.5786 16.0886 12.5164 16.1545 12.4523C16.3104 12.3007 16.4675 12.1503 16.6249 12.0001C16.087 11.6709 15.4689 11.6306 14.8554 11.5512C14.4182 11.4814 14.164 11.4127 13.8417 11.1027C13.5987 10.7075 13.3719 10.3093 13.1562 9.89858C13.0795 9.7534 13.0028 9.60822 12.9237 9.45864C12.8377 9.29356 12.8377 9.29356 12.7499 9.12514C12.7087 9.12514 12.6674 9.12514 12.6249 9.12514Z" fill="white"/>
</svg>
