<svg width="17" height="14" viewBox="0 0 17 14" fill="none" xmlns="http://www.w3.org/2000/svg">
<path d="M14.6758 4.08398C15.3008 3.61523 15.8633 3.05273 16.3008 2.39648C15.7383 2.64648 15.082 2.83398 14.4258 2.89648C15.1133 2.49023 15.6133 1.86523 15.8633 1.08398C15.2383 1.45898 14.5195 1.74023 13.8008 1.89648C13.1758 1.24023 12.332 0.865234 11.3945 0.865234C9.58203 0.865234 8.11328 2.33398 8.11328 4.14648C8.11328 4.39648 8.14453 4.64648 8.20703 4.89648C5.48828 4.74023 3.05078 3.42773 1.42578 1.45898C1.14453 1.92773 0.988281 2.49023 0.988281 3.11523C0.988281 4.24023 1.55078 5.24023 2.45703 5.83398C1.92578 5.80273 1.39453 5.67773 0.957031 5.42773V5.45898C0.957031 7.05273 2.08203 8.36523 3.58203 8.67773C3.33203 8.74023 3.01953 8.80273 2.73828 8.80273C2.51953 8.80273 2.33203 8.77148 2.11328 8.74023C2.51953 10.0527 3.73828 10.9902 5.17578 11.0215C4.05078 11.8965 2.64453 12.4277 1.11328 12.4277C0.832031 12.4277 0.582031 12.3965 0.332031 12.3652C1.76953 13.3027 3.48828 13.834 5.36328 13.834C11.3945 13.834 14.6758 8.86523 14.6758 4.52148C14.6758 4.36523 14.6758 4.24023 14.6758 4.08398Z" fill="white"/>
</svg>
